<svg width="26" height="26" viewBox="0 0 26 26" fill="none" xmlns="http://www.w3.org/2000/svg">
<path d="M21.6857 5.42456C20.0871 4.6766 18.3777 4.13301 16.5907 3.82349C16.3712 4.22028 16.1148 4.75399 15.938 5.17854C14.0383 4.89285 12.1561 4.89285 10.2913 5.17854C10.1146 4.75399 9.85237 4.22028 9.63093 3.82349C7.84194 4.13301 6.13064 4.67859 4.53201 5.42852C1.30755 10.3011 0.433449 15.0527 0.870498 19.7367C3.00913 21.3338 5.08172 22.304 7.11933 22.9388C7.62243 22.2464 8.07113 21.5104 8.45767 20.7347C7.72149 20.4549 7.01638 20.1097 6.35015 19.709C6.5269 19.578 6.69979 19.4411 6.86682 19.3003C10.9304 21.2009 15.3456 21.2009 19.3606 19.3003C19.5296 19.4411 19.7025 19.578 19.8773 19.709C19.2091 20.1117 18.5021 20.4569 17.7659 20.7367C18.1524 21.5104 18.5992 22.2484 19.1042 22.9408C21.1438 22.306 23.2183 21.3358 25.3569 19.7367C25.8697 14.3067 24.4809 9.59877 21.6857 5.42456ZM9.01127 16.8561C7.79143 16.8561 6.79105 15.7173 6.79105 14.3305C6.79105 12.9437 7.77007 11.8029 9.01127 11.8029C10.2525 11.8029 11.2529 12.9417 11.2315 14.3305C11.2334 15.7173 10.2525 16.8561 9.01127 16.8561ZM17.2162 16.8561C15.9963 16.8561 14.9959 15.7173 14.9959 14.3305C14.9959 12.9437 15.9749 11.8029 17.2162 11.8029C18.4574 11.8029 19.4577 12.9417 19.4364 14.3305C19.4364 15.7173 18.4574 16.8561 17.2162 16.8561Z" fill="white"/>
</svg>
