<svg width="371" height="55" viewBox="0 0 371 55" fill="none" xmlns="http://www.w3.org/2000/svg">
<path d="M0.301729 54.2857L9.5139 0H49.5232L47.7652 10.4525H21.3169L19.3444 21.8323H42.6762L40.9251 32.4534H17.5933L15.6209 43.8332H42.0691L40.3111 54.2857H0.301729Z" fill="white"/>
<path d="M46.8586 54.2857L56.0708 0H69.6319L62.1778 43.8332H87.7838L86.0257 54.2857H46.8586Z" fill="white"/>
<path d="M91.3592 54.2857L100.571 0H140.581L138.823 10.4525H112.374L110.402 21.8323H133.734L131.983 32.4534H108.651L106.678 43.8332H133.127L131.369 54.2857H91.3592Z" fill="white"/>
<path d="M137.916 54.2857L147.128 0H160.689L157.096 21.0736L179.388 0H194.887L171.713 22.1695L186.854 54.2857H172.366L161.88 30.8518L154.251 37.8483L151.477 54.2857H137.916Z" fill="white"/>
<path d="M203.439 54.2857L210.893 10.4525H194.974L196.732 0H242.132L240.374 10.4525H224.454L217 54.2857H203.439Z" fill="white"/>
<path d="M238.104 54.2857L247.316 0H274.438C278.032 0 281.097 0.786749 283.633 2.36025C286.222 3.87755 288.08 6.04111 289.207 8.85093C290.388 11.6046 290.635 14.8639 289.948 18.6291C289.369 22.2819 287.901 25.4851 285.544 28.2387C283.243 30.9923 280.38 33.0435 276.954 34.3922C277.598 35.0103 278.076 35.7128 278.389 36.4995C278.756 37.2301 279.108 38.2697 279.445 39.6184L283.42 54.2857H269.269L265.497 40.4614C265.163 39.1689 264.65 38.2978 263.957 37.8483C263.319 37.3425 262.269 37.0896 260.809 37.0896H254.576L251.665 54.2857H238.104ZM256.334 26.6371H266.358C268.997 26.6371 271.16 25.9908 272.848 24.6983C274.589 23.3496 275.684 21.3265 276.135 18.6291C276.641 15.9317 276.501 13.9086 275.715 12.5599C274.983 11.155 272.989 10.4525 269.732 10.4525H259.119L256.334 26.6371Z" fill="white"/>
<path d="M290.83 54.2857L300.042 0H313.603L304.391 54.2857H290.83Z" fill="white"/>
<path d="M313.039 54.2857L322.251 0H335.812L332.219 21.0736L354.512 0H370.01L346.836 22.1695L361.977 54.2857H347.489L337.003 30.8518L329.374 37.8483L326.6 54.2857H313.039Z" fill="white"/>
</svg>
