<svg width="1189" height="418" viewBox="0 0 1189 418" fill="none" xmlns="http://www.w3.org/2000/svg">
<rect x="163" y="259" width="59" height="111" fill="url(#paint0_linear_766_223)"/>
<rect x="227" y="315" width="58" height="55" fill="url(#paint1_linear_766_223)"/>
<rect x="290" y="290" width="58" height="80" fill="url(#paint2_linear_766_223)"/>
<rect x="353" y="113" width="60" height="257" fill="url(#paint3_linear_766_223)"/>
<rect x="418" y="274" width="58" height="96" fill="url(#paint4_linear_766_223)"/>
<rect x="547" y="327" width="58" height="43" fill="url(#paint5_linear_766_223)"/>
<rect x="481" y="350" width="61" height="20" fill="url(#paint6_linear_766_223)"/>
<rect x="610" y="274" width="58" height="96" fill="url(#paint7_linear_766_223)"/>
<rect x="673" width="59" height="370" fill="url(#paint8_linear_766_223)"/>
<rect x="737" y="129" width="58" height="241" fill="url(#paint9_linear_766_223)"/>
<rect x="800" y="274" width="60" height="96" fill="url(#paint10_linear_766_223)"/>
<rect x="865" y="316" width="58" height="54" fill="url(#paint11_linear_766_223)"/>
<rect x="928" y="274" width="58" height="96" fill="url(#paint12_linear_766_223)"/>
<rect x="991" y="327" width="59" height="43" fill="url(#paint13_linear_766_223)"/>
<path d="M2.99125 67V65.92C3.33792 65.1067 3.81792 64.3733 4.43125 63.72C5.05792 63.0667 5.72458 62.4333 6.43125 61.82C6.96458 61.3533 7.40458 60.96 7.75125 60.64C8.11125 60.3067 8.39125 60.0067 8.59125 59.74C8.79125 59.4733 8.93125 59.2 9.01125 58.92C9.09125 58.6267 9.13125 58.2867 9.13125 57.9C9.13125 57.2067 8.93125 56.68 8.53125 56.32C8.13125 55.96 7.46458 55.78 6.53125 55.78C6.02458 55.78 5.50458 55.8333 4.97125 55.94C4.45125 56.0467 3.95125 56.1933 3.47125 56.38V54.46C3.93792 54.3 4.49125 54.1733 5.13125 54.08C5.77125 53.9733 6.37792 53.92 6.95125 53.92C8.39125 53.92 9.47792 54.2733 10.2113 54.98C10.9446 55.6867 11.3113 56.6533 11.3113 57.88C11.3113 58.4933 11.2046 59.04 10.9913 59.52C10.7779 59.9867 10.4846 60.4333 10.1113 60.86C9.73792 61.2733 9.30458 61.7 8.81125 62.14C8.19792 62.6733 7.61792 63.1933 7.07125 63.7C6.53792 64.1933 6.10458 64.7333 5.77125 65.32H11.4513V67H2.99125ZM17.207 67.2C16.6337 67.2 16.007 67.1533 15.327 67.06C14.647 66.9667 14.0804 66.82 13.627 66.62V64.72C14.0937 64.92 14.627 65.0733 15.227 65.18C15.827 65.2867 16.3937 65.34 16.927 65.34C17.9537 65.34 18.707 65.1667 19.187 64.82C19.6804 64.46 19.927 63.8733 19.927 63.06C19.927 62.3133 19.7537 61.76 19.407 61.4C19.0604 61.04 18.3804 60.86 17.367 60.86H13.567V59.54L13.907 54.12H21.227L21.047 55.8H15.747L15.527 59.18H17.707C19.2404 59.18 20.3604 59.5067 21.067 60.16C21.7737 60.8133 22.127 61.7933 22.127 63.1C22.127 64.3667 21.7137 65.3667 20.887 66.1C20.0604 66.8333 18.8337 67.2 17.207 67.2Z" fill="#9CA3AF"/>
<path d="M0.256875 129V127.92C0.603542 127.107 1.08354 126.373 1.69688 125.72C2.32354 125.067 2.99021 124.433 3.69688 123.82C4.23021 123.353 4.67021 122.96 5.01688 122.64C5.37688 122.307 5.65688 122.007 5.85688 121.74C6.05688 121.473 6.19688 121.2 6.27688 120.92C6.35688 120.627 6.39688 120.287 6.39688 119.9C6.39688 119.207 6.19688 118.68 5.79688 118.32C5.39688 117.96 4.73021 117.78 3.79688 117.78C3.29021 117.78 2.77021 117.833 2.23688 117.94C1.71688 118.047 1.21688 118.193 0.736875 118.38V116.46C1.20354 116.3 1.75688 116.173 2.39688 116.08C3.03688 115.973 3.64354 115.92 4.21688 115.92C5.65688 115.92 6.74354 116.273 7.47688 116.98C8.21021 117.687 8.57688 118.653 8.57688 119.88C8.57688 120.493 8.47021 121.04 8.25688 121.52C8.04354 121.987 7.75021 122.433 7.37688 122.86C7.00354 123.273 6.57021 123.7 6.07688 124.14C5.46354 124.673 4.88354 125.193 4.33688 125.7C3.80354 126.193 3.37021 126.733 3.03688 127.32H8.71688V129H0.256875ZM16.4927 129.36C15.1327 129.36 14.0393 129.1 13.2127 128.58C12.386 128.047 11.7793 127.287 11.3927 126.3C11.0193 125.3 10.8327 124.107 10.8327 122.72C10.8327 121.28 11.0127 120.053 11.3727 119.04C11.746 118.027 12.346 117.253 13.1727 116.72C13.9993 116.187 15.106 115.92 16.4927 115.92C17.8793 115.92 18.9793 116.187 19.7927 116.72C20.6193 117.253 21.2127 118.027 21.5727 119.04C21.946 120.053 22.1327 121.28 22.1327 122.72C22.1327 124.107 21.946 125.3 21.5727 126.3C21.1993 127.287 20.5993 128.047 19.7727 128.58C18.946 129.1 17.8527 129.36 16.4927 129.36ZM16.4927 127.5C17.7727 127.5 18.666 127.08 19.1727 126.24C19.6793 125.387 19.9327 124.213 19.9327 122.72C19.9327 121.133 19.686 119.913 19.1927 119.06C18.6993 118.207 17.7993 117.78 16.4927 117.78C15.186 117.78 14.2793 118.207 13.7727 119.06C13.2793 119.913 13.0327 121.133 13.0327 122.72C13.0327 124.213 13.286 125.387 13.7927 126.24C14.2993 127.08 15.1993 127.5 16.4927 127.5Z" fill="#9CA3AF"/>
<path d="M8.86031 191V180.04L6.78031 180.4V178.58L11.0203 177.92V191H8.86031ZM17.207 191.2C16.6337 191.2 16.007 191.153 15.327 191.06C14.647 190.967 14.0804 190.82 13.627 190.62V188.72C14.0937 188.92 14.627 189.073 15.227 189.18C15.827 189.287 16.3937 189.34 16.927 189.34C17.9537 189.34 18.707 189.167 19.187 188.82C19.6804 188.46 19.927 187.873 19.927 187.06C19.927 186.313 19.7537 185.76 19.407 185.4C19.0604 185.04 18.3804 184.86 17.367 184.86H13.567V183.54L13.907 178.12H21.227L21.047 179.8H15.747L15.527 183.18H17.707C19.2404 183.18 20.3604 183.507 21.067 184.16C21.7737 184.813 22.127 185.793 22.127 187.1C22.127 188.367 21.7137 189.367 20.887 190.1C20.0604 190.833 18.8337 191.2 17.207 191.2Z" fill="#9CA3AF"/>
<path d="M6.12594 253V242.04L4.04594 242.4V240.58L8.28594 239.92V253H6.12594ZM16.4927 253.36C15.1327 253.36 14.0393 253.1 13.2127 252.58C12.386 252.047 11.7793 251.287 11.3927 250.3C11.0193 249.3 10.8327 248.107 10.8327 246.72C10.8327 245.28 11.0127 244.053 11.3727 243.04C11.746 242.027 12.346 241.253 13.1727 240.72C13.9993 240.187 15.106 239.92 16.4927 239.92C17.8793 239.92 18.9793 240.187 19.7927 240.72C20.6193 241.253 21.2127 242.027 21.5727 243.04C21.946 244.053 22.1327 245.28 22.1327 246.72C22.1327 248.107 21.946 249.3 21.5727 250.3C21.1993 251.287 20.5993 252.047 19.7727 252.58C18.946 253.1 17.8527 253.36 16.4927 253.36ZM16.4927 251.5C17.7727 251.5 18.666 251.08 19.1727 250.24C19.6793 249.387 19.9327 248.213 19.9327 246.72C19.9327 245.133 19.686 243.913 19.1927 243.06C18.6993 242.207 17.7993 241.78 16.4927 241.78C15.186 241.78 14.2793 242.207 13.7727 243.06C13.2793 243.913 13.0327 245.133 13.0327 246.72C13.0327 248.213 13.286 249.387 13.7927 250.24C14.2993 251.08 15.1993 251.5 16.4927 251.5Z" fill="#9CA3AF"/>
<path d="M17.207 315.2C16.6337 315.2 16.007 315.153 15.327 315.06C14.647 314.967 14.0804 314.82 13.627 314.62V312.72C14.0937 312.92 14.627 313.073 15.227 313.18C15.827 313.287 16.3937 313.34 16.927 313.34C17.9537 313.34 18.707 313.167 19.187 312.82C19.6804 312.46 19.927 311.873 19.927 311.06C19.927 310.313 19.7537 309.76 19.407 309.4C19.0604 309.04 18.3804 308.86 17.367 308.86H13.567V307.54L13.907 302.12H21.227L21.047 303.8H15.747L15.527 307.18H17.707C19.2404 307.18 20.3604 307.507 21.067 308.16C21.7737 308.813 22.127 309.793 22.127 311.1C22.127 312.367 21.7137 313.367 20.887 314.1C20.0604 314.833 18.8337 315.2 17.207 315.2Z" fill="#9CA3AF"/>
<path d="M180.031 416V405.04L177.951 405.4V403.58L182.191 402.92V416H180.031ZM184.738 416V414.92C185.085 414.107 185.565 413.373 186.178 412.72C186.805 412.067 187.471 411.433 188.178 410.82C188.711 410.353 189.151 409.96 189.498 409.64C189.858 409.307 190.138 409.007 190.338 408.74C190.538 408.473 190.678 408.2 190.758 407.92C190.838 407.627 190.878 407.287 190.878 406.9C190.878 406.207 190.678 405.68 190.278 405.32C189.878 404.96 189.211 404.78 188.278 404.78C187.771 404.78 187.251 404.833 186.718 404.94C186.198 405.047 185.698 405.193 185.218 405.38V403.46C185.685 403.3 186.238 403.173 186.878 403.08C187.518 402.973 188.125 402.92 188.698 402.92C190.138 402.92 191.225 403.273 191.958 403.98C192.691 404.687 193.058 405.653 193.058 406.88C193.058 407.493 192.951 408.04 192.738 408.52C192.525 408.987 192.231 409.433 191.858 409.86C191.485 410.273 191.051 410.7 190.558 411.14C189.945 411.673 189.365 412.193 188.818 412.7C188.285 413.193 187.851 413.733 187.518 414.32H193.198V416H184.738ZM200.974 416.36C199.614 416.36 198.521 416.1 197.694 415.58C196.867 415.047 196.261 414.287 195.874 413.3C195.501 412.3 195.314 411.107 195.314 409.72C195.314 408.28 195.494 407.053 195.854 406.04C196.227 405.027 196.827 404.253 197.654 403.72C198.481 403.187 199.587 402.92 200.974 402.92C202.361 402.92 203.461 403.187 204.274 403.72C205.101 404.253 205.694 405.027 206.054 406.04C206.427 407.053 206.614 408.28 206.614 409.72C206.614 411.107 206.427 412.3 206.054 413.3C205.681 414.287 205.081 415.047 204.254 415.58C203.427 416.1 202.334 416.36 200.974 416.36ZM200.974 414.5C202.254 414.5 203.147 414.08 203.654 413.24C204.161 412.387 204.414 411.213 204.414 409.72C204.414 408.133 204.167 406.913 203.674 406.06C203.181 405.207 202.281 404.78 200.974 404.78C199.667 404.78 198.761 405.207 198.254 406.06C197.761 406.913 197.514 408.133 197.514 409.72C197.514 411.213 197.767 412.387 198.274 413.24C198.781 414.08 199.681 414.5 200.974 414.5ZM214.401 416.36C213.041 416.36 211.948 416.1 211.121 415.58C210.295 415.047 209.688 414.287 209.301 413.3C208.928 412.3 208.741 411.107 208.741 409.72C208.741 408.28 208.921 407.053 209.281 406.04C209.655 405.027 210.255 404.253 211.081 403.72C211.908 403.187 213.015 402.92 214.401 402.92C215.788 402.92 216.888 403.187 217.701 403.72C218.528 404.253 219.121 405.027 219.481 406.04C219.855 407.053 220.041 408.28 220.041 409.72C220.041 411.107 219.855 412.3 219.481 413.3C219.108 414.287 218.508 415.047 217.681 415.58C216.855 416.1 215.761 416.36 214.401 416.36ZM214.401 414.5C215.681 414.5 216.575 414.08 217.081 413.24C217.588 412.387 217.841 411.213 217.841 409.72C217.841 408.133 217.595 406.913 217.101 406.06C216.608 405.207 215.708 404.78 214.401 404.78C213.095 404.78 212.188 405.207 211.681 406.06C211.188 406.913 210.941 408.133 210.941 409.72C210.941 411.213 211.195 412.387 211.701 413.24C212.208 414.08 213.108 414.5 214.401 414.5Z" fill="#9CA3AF"/>
<path d="M341.934 416V405.04L339.854 405.4V403.58L344.094 402.92V416H341.934ZM350.3 416.2C349.914 416.2 349.487 416.173 349.02 416.12C348.554 416.08 348.107 416.013 347.68 415.92C347.267 415.827 346.92 415.727 346.64 415.62V413.72C347.174 413.933 347.72 414.093 348.28 414.2C348.854 414.293 349.427 414.34 350 414.34C351.04 414.34 351.814 414.187 352.32 413.88C352.827 413.573 353.08 413.033 353.08 412.26C353.08 411.567 352.847 411.067 352.38 410.76C351.927 410.453 351.274 410.3 350.42 410.3H348.48L348.66 408.68H350.28C351.974 408.68 352.82 408.013 352.82 406.68C352.82 406.027 352.594 405.547 352.14 405.24C351.7 404.933 350.987 404.78 350 404.78C349.454 404.78 348.9 404.833 348.34 404.94C347.794 405.047 347.307 405.193 346.88 405.38V403.52C347.28 403.36 347.8 403.22 348.44 403.1C349.08 402.98 349.714 402.92 350.34 402.92C351.914 402.92 353.08 403.253 353.84 403.92C354.614 404.587 355 405.44 355 406.48C355 407.12 354.84 407.72 354.52 408.28C354.214 408.84 353.727 409.24 353.06 409.48C353.834 409.68 354.394 410.04 354.74 410.56C355.1 411.08 355.28 411.693 355.28 412.4C355.28 413.693 354.827 414.653 353.92 415.28C353.014 415.893 351.807 416.2 350.3 416.2ZM363.072 416.36C361.712 416.36 360.618 416.1 359.792 415.58C358.965 415.047 358.358 414.287 357.972 413.3C357.598 412.3 357.412 411.107 357.412 409.72C357.412 408.28 357.592 407.053 357.952 406.04C358.325 405.027 358.925 404.253 359.752 403.72C360.578 403.187 361.685 402.92 363.072 402.92C364.458 402.92 365.558 403.187 366.372 403.72C367.198 404.253 367.792 405.027 368.152 406.04C368.525 407.053 368.712 408.28 368.712 409.72C368.712 411.107 368.525 412.3 368.152 413.3C367.778 414.287 367.178 415.047 366.352 415.58C365.525 416.1 364.432 416.36 363.072 416.36ZM363.072 414.5C364.352 414.5 365.245 414.08 365.752 413.24C366.258 412.387 366.512 411.213 366.512 409.72C366.512 408.133 366.265 406.913 365.772 406.06C365.278 405.207 364.378 404.78 363.072 404.78C361.765 404.78 360.858 405.207 360.352 406.06C359.858 406.913 359.612 408.133 359.612 409.72C359.612 411.213 359.865 412.387 360.372 413.24C360.878 414.08 361.778 414.5 363.072 414.5ZM376.499 416.36C375.139 416.36 374.046 416.1 373.219 415.58C372.392 415.047 371.786 414.287 371.399 413.3C371.026 412.3 370.839 411.107 370.839 409.72C370.839 408.28 371.019 407.053 371.379 406.04C371.752 405.027 372.352 404.253 373.179 403.72C374.006 403.187 375.112 402.92 376.499 402.92C377.886 402.92 378.986 403.187 379.799 403.72C380.626 404.253 381.219 405.027 381.579 406.04C381.952 407.053 382.139 408.28 382.139 409.72C382.139 411.107 381.952 412.3 381.579 413.3C381.206 414.287 380.606 415.047 379.779 415.58C378.952 416.1 377.859 416.36 376.499 416.36ZM376.499 414.5C377.779 414.5 378.672 414.08 379.179 413.24C379.686 412.387 379.939 411.213 379.939 409.72C379.939 408.133 379.692 406.913 379.199 406.06C378.706 405.207 377.806 404.78 376.499 404.78C375.192 404.78 374.286 405.207 373.779 406.06C373.286 406.913 373.039 408.133 373.039 409.72C373.039 411.213 373.292 412.387 373.799 413.24C374.306 414.08 375.206 414.5 376.499 414.5Z" fill="#9CA3AF"/>
<path d="M503.69 416V405.04L501.61 405.4V403.58L505.85 402.92V416H503.69ZM514.436 416V413.18H507.996V411.64L514.696 403.12H516.596V411.42H517.916V413.18H516.596V416H514.436ZM510.116 411.48H514.776V405.6L510.116 411.48ZM525.316 416.36C523.956 416.36 522.862 416.1 522.036 415.58C521.209 415.047 520.602 414.287 520.216 413.3C519.842 412.3 519.656 411.107 519.656 409.72C519.656 408.28 519.836 407.053 520.196 406.04C520.569 405.027 521.169 404.253 521.996 403.72C522.822 403.187 523.929 402.92 525.316 402.92C526.702 402.92 527.802 403.187 528.616 403.72C529.442 404.253 530.036 405.027 530.396 406.04C530.769 407.053 530.956 408.28 530.956 409.72C530.956 411.107 530.769 412.3 530.396 413.3C530.022 414.287 529.422 415.047 528.596 415.58C527.769 416.1 526.676 416.36 525.316 416.36ZM525.316 414.5C526.596 414.5 527.489 414.08 527.996 413.24C528.502 412.387 528.756 411.213 528.756 409.72C528.756 408.133 528.509 406.913 528.016 406.06C527.522 405.207 526.622 404.78 525.316 404.78C524.009 404.78 523.102 405.207 522.596 406.06C522.102 406.913 521.856 408.133 521.856 409.72C521.856 411.213 522.109 412.387 522.616 413.24C523.122 414.08 524.022 414.5 525.316 414.5ZM538.743 416.36C537.383 416.36 536.29 416.1 535.463 415.58C534.636 415.047 534.03 414.287 533.643 413.3C533.27 412.3 533.083 411.107 533.083 409.72C533.083 408.28 533.263 407.053 533.623 406.04C533.996 405.027 534.596 404.253 535.423 403.72C536.25 403.187 537.356 402.92 538.743 402.92C540.13 402.92 541.23 403.187 542.043 403.72C542.87 404.253 543.463 405.027 543.823 406.04C544.196 407.053 544.383 408.28 544.383 409.72C544.383 411.107 544.196 412.3 543.823 413.3C543.45 414.287 542.85 415.047 542.023 415.58C541.196 416.1 540.103 416.36 538.743 416.36ZM538.743 414.5C540.023 414.5 540.916 414.08 541.423 413.24C541.93 412.387 542.183 411.213 542.183 409.72C542.183 408.133 541.936 406.913 541.443 406.06C540.95 405.207 540.05 404.78 538.743 404.78C537.436 404.78 536.53 405.207 536.023 406.06C535.53 406.913 535.283 408.133 535.283 409.72C535.283 411.213 535.536 412.387 536.043 413.24C536.55 414.08 537.45 414.5 538.743 414.5Z" fill="#9CA3AF"/>
<path d="M665.973 416V405.04L663.893 405.4V403.58L668.133 402.92V416H665.973ZM674.32 416.2C673.746 416.2 673.12 416.153 672.44 416.06C671.76 415.967 671.193 415.82 670.74 415.62V413.72C671.206 413.92 671.74 414.073 672.34 414.18C672.94 414.287 673.506 414.34 674.04 414.34C675.066 414.34 675.82 414.167 676.3 413.82C676.793 413.46 677.04 412.873 677.04 412.06C677.04 411.313 676.866 410.76 676.52 410.4C676.173 410.04 675.493 409.86 674.48 409.86H670.68V408.54L671.02 403.12H678.34L678.16 404.8H672.86L672.64 408.18H674.82C676.353 408.18 677.473 408.507 678.18 409.16C678.886 409.813 679.24 410.793 679.24 412.1C679.24 413.367 678.826 414.367 678 415.1C677.173 415.833 675.946 416.2 674.32 416.2ZM687.033 416.36C685.673 416.36 684.579 416.1 683.753 415.58C682.926 415.047 682.319 414.287 681.933 413.3C681.559 412.3 681.373 411.107 681.373 409.72C681.373 408.28 681.553 407.053 681.913 406.04C682.286 405.027 682.886 404.253 683.713 403.72C684.539 403.187 685.646 402.92 687.033 402.92C688.419 402.92 689.519 403.187 690.333 403.72C691.159 404.253 691.753 405.027 692.113 406.04C692.486 407.053 692.673 408.28 692.673 409.72C692.673 411.107 692.486 412.3 692.113 413.3C691.739 414.287 691.139 415.047 690.313 415.58C689.486 416.1 688.393 416.36 687.033 416.36ZM687.033 414.5C688.313 414.5 689.206 414.08 689.713 413.24C690.219 412.387 690.473 411.213 690.473 409.72C690.473 408.133 690.226 406.913 689.733 406.06C689.239 405.207 688.339 404.78 687.033 404.78C685.726 404.78 684.819 405.207 684.313 406.06C683.819 406.913 683.573 408.133 683.573 409.72C683.573 411.213 683.826 412.387 684.333 413.24C684.839 414.08 685.739 414.5 687.033 414.5ZM700.46 416.36C699.1 416.36 698.007 416.1 697.18 415.58C696.353 415.047 695.747 414.287 695.36 413.3C694.987 412.3 694.8 411.107 694.8 409.72C694.8 408.28 694.98 407.053 695.34 406.04C695.713 405.027 696.313 404.253 697.14 403.72C697.967 403.187 699.073 402.92 700.46 402.92C701.847 402.92 702.947 403.187 703.76 403.72C704.587 404.253 705.18 405.027 705.54 406.04C705.913 407.053 706.1 408.28 706.1 409.72C706.1 411.107 705.913 412.3 705.54 413.3C705.167 414.287 704.567 415.047 703.74 415.58C702.913 416.1 701.82 416.36 700.46 416.36ZM700.46 414.5C701.74 414.5 702.633 414.08 703.14 413.24C703.647 412.387 703.9 411.213 703.9 409.72C703.9 408.133 703.653 406.913 703.16 406.06C702.667 405.207 701.767 404.78 700.46 404.78C699.153 404.78 698.247 405.207 697.74 406.06C697.247 406.913 697 408.133 697 409.72C697 411.213 697.253 412.387 697.76 413.24C698.267 414.08 699.167 414.5 700.46 414.5Z" fill="#9CA3AF"/>
<path d="M827.387 416V405.04L825.307 405.4V403.58L829.547 402.92V416H827.387ZM836.974 416.2C835.36 416.2 834.14 415.8 833.314 415C832.5 414.2 832.094 412.94 832.094 411.22V408.32C832.094 407.253 832.314 406.313 832.754 405.5C833.194 404.687 833.82 404.053 834.634 403.6C835.447 403.147 836.414 402.92 837.534 402.92C838.187 402.92 838.754 402.96 839.234 403.04C839.727 403.12 840.18 403.233 840.594 403.38V405.24C840.18 405.093 839.734 404.98 839.254 404.9C838.787 404.82 838.26 404.78 837.674 404.78C836.474 404.78 835.587 405.067 835.014 405.64C834.44 406.2 834.154 406.953 834.154 407.9V408.7C834.62 408.353 835.154 408.1 835.754 407.94C836.367 407.767 836.92 407.68 837.414 407.68C838.92 407.68 840.034 408.047 840.754 408.78C841.474 409.513 841.834 410.553 841.834 411.9C841.834 413.18 841.44 414.22 840.654 415.02C839.867 415.807 838.64 416.2 836.974 416.2ZM836.994 414.56C837.954 414.56 838.674 414.327 839.154 413.86C839.634 413.393 839.874 412.767 839.874 411.98C839.874 411.153 839.674 410.513 839.274 410.06C838.887 409.593 838.16 409.36 837.094 409.36C836.56 409.36 836.034 409.453 835.514 409.64C835.007 409.813 834.554 410.047 834.154 410.34V411.72C834.154 413.613 835.1 414.56 836.994 414.56ZM849.618 416.36C848.258 416.36 847.165 416.1 846.338 415.58C845.512 415.047 844.905 414.287 844.518 413.3C844.145 412.3 843.958 411.107 843.958 409.72C843.958 408.28 844.138 407.053 844.498 406.04C844.872 405.027 845.472 404.253 846.298 403.72C847.125 403.187 848.232 402.92 849.618 402.92C851.005 402.92 852.105 403.187 852.918 403.72C853.745 404.253 854.338 405.027 854.698 406.04C855.072 407.053 855.258 408.28 855.258 409.72C855.258 411.107 855.072 412.3 854.698 413.3C854.325 414.287 853.725 415.047 852.898 415.58C852.072 416.1 850.978 416.36 849.618 416.36ZM849.618 414.5C850.898 414.5 851.792 414.08 852.298 413.24C852.805 412.387 853.058 411.213 853.058 409.72C853.058 408.133 852.812 406.913 852.318 406.06C851.825 405.207 850.925 404.78 849.618 404.78C848.312 404.78 847.405 405.207 846.898 406.06C846.405 406.913 846.158 408.133 846.158 409.72C846.158 411.213 846.412 412.387 846.918 413.24C847.425 414.08 848.325 414.5 849.618 414.5ZM863.046 416.36C861.686 416.36 860.592 416.1 859.766 415.58C858.939 415.047 858.332 414.287 857.946 413.3C857.572 412.3 857.386 411.107 857.386 409.72C857.386 408.28 857.566 407.053 857.926 406.04C858.299 405.027 858.899 404.253 859.726 403.72C860.552 403.187 861.659 402.92 863.046 402.92C864.432 402.92 865.532 403.187 866.346 403.72C867.172 404.253 867.766 405.027 868.126 406.04C868.499 407.053 868.686 408.28 868.686 409.72C868.686 411.107 868.499 412.3 868.126 413.3C867.752 414.287 867.152 415.047 866.326 415.58C865.499 416.1 864.406 416.36 863.046 416.36ZM863.046 414.5C864.326 414.5 865.219 414.08 865.726 413.24C866.232 412.387 866.486 411.213 866.486 409.72C866.486 408.133 866.239 406.913 865.746 406.06C865.252 405.207 864.352 404.78 863.046 404.78C861.739 404.78 860.832 405.207 860.326 406.06C859.832 406.913 859.586 408.133 859.586 409.72C859.586 411.213 859.839 412.387 860.346 413.24C860.852 414.08 861.752 414.5 863.046 414.5Z" fill="#9CA3AF"/>
<path d="M990.139 416V405.04L988.059 405.4V403.58L992.299 402.92V416H990.139ZM996.186 416L1000.93 404.8H994.646V403.12H1003.27V404.52L998.406 416H996.186ZM1010.87 416.36C1009.51 416.36 1008.41 416.1 1007.59 415.58C1006.76 415.047 1006.15 414.287 1005.77 413.3C1005.39 412.3 1005.21 411.107 1005.21 409.72C1005.21 408.28 1005.39 407.053 1005.75 406.04C1006.12 405.027 1006.72 404.253 1007.55 403.72C1008.37 403.187 1009.48 402.92 1010.87 402.92C1012.25 402.92 1013.35 403.187 1014.17 403.72C1014.99 404.253 1015.59 405.027 1015.95 406.04C1016.32 407.053 1016.51 408.28 1016.51 409.72C1016.51 411.107 1016.32 412.3 1015.95 413.3C1015.57 414.287 1014.97 415.047 1014.15 415.58C1013.32 416.1 1012.23 416.36 1010.87 416.36ZM1010.87 414.5C1012.15 414.5 1013.04 414.08 1013.55 413.24C1014.05 412.387 1014.31 411.213 1014.31 409.72C1014.31 408.133 1014.06 406.913 1013.57 406.06C1013.07 405.207 1012.17 404.78 1010.87 404.78C1009.56 404.78 1008.65 405.207 1008.15 406.06C1007.65 406.913 1007.41 408.133 1007.41 409.72C1007.41 411.213 1007.66 412.387 1008.17 413.24C1008.67 414.08 1009.57 414.5 1010.87 414.5ZM1024.29 416.36C1022.93 416.36 1021.84 416.1 1021.01 415.58C1020.19 415.047 1019.58 414.287 1019.19 413.3C1018.82 412.3 1018.63 411.107 1018.63 409.72C1018.63 408.28 1018.81 407.053 1019.17 406.04C1019.55 405.027 1020.15 404.253 1020.97 403.72C1021.8 403.187 1022.91 402.92 1024.29 402.92C1025.68 402.92 1026.78 403.187 1027.59 403.72C1028.42 404.253 1029.01 405.027 1029.37 406.04C1029.75 407.053 1029.93 408.28 1029.93 409.72C1029.93 411.107 1029.75 412.3 1029.37 413.3C1029 414.287 1028.4 415.047 1027.57 415.58C1026.75 416.1 1025.65 416.36 1024.29 416.36ZM1024.29 414.5C1025.57 414.5 1026.47 414.08 1026.97 413.24C1027.48 412.387 1027.73 411.213 1027.73 409.72C1027.73 408.133 1027.49 406.913 1026.99 406.06C1026.5 405.207 1025.6 404.78 1024.29 404.78C1022.99 404.78 1022.08 405.207 1021.57 406.06C1021.08 406.913 1020.83 408.133 1020.83 409.72C1020.83 411.213 1021.09 412.387 1021.59 413.24C1022.1 414.08 1023 414.5 1024.29 414.5Z" fill="#9CA3AF"/>
<path d="M1098.48 416V401.832H1104.79C1105.88 401.832 1106.77 402.037 1107.48 402.448C1108.18 402.859 1108.7 403.423 1109.04 404.142C1109.38 404.846 1109.55 405.653 1109.55 406.562C1109.55 407.97 1109.11 409.099 1108.23 409.95C1107.36 410.801 1106.19 411.226 1104.71 411.226H1100.88V416H1098.48ZM1100.88 409.334H1104.27C1105.22 409.334 1105.94 409.085 1106.42 408.586C1106.91 408.087 1107.15 407.413 1107.15 406.562C1107.15 405.653 1106.91 404.949 1106.44 404.45C1105.99 403.951 1105.3 403.702 1104.38 403.702H1100.88V409.334ZM1111.9 416V401.832H1118.41C1119.99 401.832 1121.14 402.243 1121.86 403.064C1122.6 403.871 1122.96 404.971 1122.96 406.364C1122.96 407.361 1122.71 408.212 1122.21 408.916C1121.72 409.62 1121 410.111 1120.06 410.39C1120.32 410.581 1120.53 410.786 1120.67 411.006C1120.82 411.226 1120.97 411.519 1121.11 411.886L1122.9 416H1120.43L1118.69 412.04C1118.53 411.659 1118.33 411.387 1118.1 411.226C1117.88 411.065 1117.5 410.984 1116.96 410.984H1114.29V416H1111.9ZM1114.29 409.048H1117.77C1118.64 409.048 1119.32 408.835 1119.82 408.41C1120.31 407.985 1120.56 407.303 1120.56 406.364C1120.56 404.589 1119.71 403.702 1117.99 403.702H1114.29V409.048ZM1125.76 416V401.832H1128.16V416H1125.76ZM1138.03 416.22C1135.69 416.22 1133.93 415.582 1132.72 414.306C1131.54 413.03 1130.94 411.307 1130.94 409.136C1130.94 407.581 1131.19 406.247 1131.69 405.132C1132.2 404.003 1132.98 403.137 1134.02 402.536C1135.06 401.92 1136.39 401.612 1138 401.612C1138.82 401.612 1139.57 401.678 1140.25 401.81C1140.94 401.927 1141.57 402.089 1142.16 402.294V404.384C1141.57 404.149 1140.94 403.973 1140.27 403.856C1139.61 403.724 1138.91 403.658 1138.18 403.658C1136.42 403.658 1135.17 404.127 1134.44 405.066C1133.72 406.005 1133.36 407.361 1133.36 409.136C1133.36 410.793 1133.76 412.055 1134.55 412.92C1135.34 413.771 1136.57 414.196 1138.22 414.196C1138.9 414.196 1139.57 414.145 1140.25 414.042C1140.94 413.925 1141.58 413.749 1142.18 413.514V415.626C1141.6 415.817 1140.96 415.963 1140.27 416.066C1139.59 416.169 1138.85 416.22 1138.03 416.22ZM1144.95 416V401.832H1154.83V403.702H1147.35V407.992H1154.01V409.84H1147.35V414.152H1154.83V416H1144.95ZM1165.52 417.584C1164.81 416.939 1164.23 416.169 1163.79 415.274C1163.35 414.379 1163.03 413.419 1162.84 412.392C1162.65 411.365 1162.55 410.346 1162.55 409.334C1162.55 408.322 1162.65 407.31 1162.84 406.298C1163.03 405.271 1163.35 404.311 1163.79 403.416C1164.23 402.507 1164.81 401.729 1165.52 401.084H1168.23C1167.07 402.096 1166.24 403.306 1165.72 404.714C1165.22 406.107 1164.97 407.647 1164.97 409.334C1164.97 411.021 1165.22 412.568 1165.72 413.976C1166.24 415.369 1167.07 416.572 1168.23 417.584H1165.52ZM1174.46 417.892V416.22C1173.65 416.191 1172.91 416.117 1172.24 416C1171.56 415.897 1170.97 415.736 1170.46 415.516V413.404C1171.06 413.639 1171.7 413.829 1172.39 413.976C1173.08 414.108 1173.77 414.181 1174.46 414.196V409.664C1174.4 409.664 1174.34 409.649 1174.28 409.62C1172.76 409.224 1171.69 408.725 1171.07 408.124C1170.46 407.508 1170.15 406.665 1170.15 405.594C1170.15 404.494 1170.51 403.607 1171.23 402.932C1171.96 402.243 1173.04 401.825 1174.46 401.678V399.94H1176.26V401.634C1176.95 401.663 1177.59 401.737 1178.18 401.854C1178.77 401.957 1179.24 402.067 1179.61 402.184V404.296C1178.58 403.915 1177.47 403.702 1176.26 403.658V408.014C1177.36 408.307 1178.22 408.659 1178.82 409.07C1179.43 409.466 1179.86 409.928 1180.09 410.456C1180.34 410.969 1180.47 411.556 1180.47 412.216C1180.47 413.287 1180.11 414.167 1179.41 414.856C1178.71 415.545 1177.66 415.971 1176.26 416.132V417.892H1174.46ZM1174.46 407.508V403.768C1173.86 403.871 1173.39 404.069 1173.05 404.362C1172.73 404.641 1172.57 405.051 1172.57 405.594C1172.57 406.093 1172.7 406.481 1172.96 406.76C1173.24 407.024 1173.74 407.273 1174.46 407.508ZM1176.26 414.086C1176.87 413.983 1177.31 413.793 1177.61 413.514C1177.9 413.221 1178.05 412.788 1178.05 412.216C1178.05 411.703 1177.91 411.299 1177.63 411.006C1177.36 410.698 1176.91 410.427 1176.26 410.192V414.086ZM1182.35 417.584C1183.53 416.572 1184.36 415.369 1184.86 413.976C1185.36 412.568 1185.61 411.021 1185.61 409.334C1185.61 407.647 1185.36 406.107 1184.86 404.714C1184.36 403.306 1183.53 402.096 1182.35 401.084H1185.08C1185.8 401.729 1186.37 402.507 1186.8 403.416C1187.24 404.311 1187.55 405.271 1187.74 406.298C1187.93 407.31 1188.03 408.322 1188.03 409.334C1188.03 410.346 1187.93 411.365 1187.74 412.392C1187.55 413.419 1187.24 414.379 1186.8 415.274C1186.37 416.169 1185.8 416.939 1185.08 417.584H1182.35Z" fill="white"/>
<path fill-rule="evenodd" clip-rule="evenodd" d="M0 370L1177 370V372L0 372V370Z" fill="#313E47"/>
<path fill-rule="evenodd" clip-rule="evenodd" d="M41 308H63V310H41V308Z" fill="#313E47"/>
<path fill-rule="evenodd" clip-rule="evenodd" d="M201 360L201 382L199 382L199 360L201 360Z" fill="#313E47"/>
<path fill-rule="evenodd" clip-rule="evenodd" d="M363 360L363 382L361 382L361 360L363 360Z" fill="#313E47"/>
<path fill-rule="evenodd" clip-rule="evenodd" d="M525 360L525 382L523 382L523 360L525 360Z" fill="#313E47"/>
<path fill-rule="evenodd" clip-rule="evenodd" d="M687 360L687 382L685 382L685 360L687 360Z" fill="#313E47"/>
<path fill-rule="evenodd" clip-rule="evenodd" d="M849 360L849 382L847 382L847 360L849 360Z" fill="#313E47"/>
<path fill-rule="evenodd" clip-rule="evenodd" d="M1011 360L1011 382L1009 382L1009 360L1011 360Z" fill="#313E47"/>
<path fill-rule="evenodd" clip-rule="evenodd" d="M41 246H63V248H41V246Z" fill="#313E47"/>
<path fill-rule="evenodd" clip-rule="evenodd" d="M41 184H63V186H41V184Z" fill="#313E47"/>
<path fill-rule="evenodd" clip-rule="evenodd" d="M41 122H63V124H41V122Z" fill="#313E47"/>
<path fill-rule="evenodd" clip-rule="evenodd" d="M41 60L63 60V62L41 62V60Z" fill="#313E47"/>
<path fill-rule="evenodd" clip-rule="evenodd" d="M51 395L51 19L53 19L53 395L51 395Z" fill="#313E47"/>
<defs>
<linearGradient id="paint0_linear_766_223" x1="216.794" y1="261.938" x2="165.496" y2="368.579" gradientUnits="userSpaceOnUse">
<stop stop-color="#D96DFF"/>
<stop offset="1" stop-color="#AD00FF"/>
</linearGradient>
<linearGradient id="paint1_linear_766_223" x1="278.558" y1="317.378" x2="268.747" y2="372.278" gradientUnits="userSpaceOnUse">
<stop stop-color="#A2EEFF"/>
<stop offset="1" stop-color="#029AF0"/>
</linearGradient>
<linearGradient id="paint2_linear_766_223" x1="342.882" y1="292.118" x2="313.197" y2="376.292" gradientUnits="userSpaceOnUse">
<stop stop-color="#FFDF6D"/>
<stop offset="1" stop-color="#FF8A00"/>
</linearGradient>
<linearGradient id="paint3_linear_766_223" x1="407.706" y1="119.803" x2="256.311" y2="258.039" gradientUnits="userSpaceOnUse">
<stop stop-color="#D96DFF"/>
<stop offset="1" stop-color="#AD00FF"/>
</linearGradient>
<linearGradient id="paint4_linear_766_223" x1="469.558" y1="278.15" x2="441.448" y2="368.268" gradientUnits="userSpaceOnUse">
<stop stop-color="#A2EEFF"/>
<stop offset="1" stop-color="#029AF0"/>
</linearGradient>
<linearGradient id="paint5_linear_766_223" x1="599.882" y1="328.138" x2="590.574" y2="377.244" gradientUnits="userSpaceOnUse">
<stop stop-color="#D96DFF"/>
<stop offset="1" stop-color="#AD00FF"/>
</linearGradient>
<linearGradient id="paint6_linear_766_223" x1="536.618" y1="350.529" x2="534.648" y2="374.025" gradientUnits="userSpaceOnUse">
<stop stop-color="#FFDF6D"/>
<stop offset="1" stop-color="#FF8A00"/>
</linearGradient>
<linearGradient id="paint7_linear_766_223" x1="661.558" y1="278.15" x2="633.448" y2="368.268" gradientUnits="userSpaceOnUse">
<stop stop-color="#A2EEFF"/>
<stop offset="1" stop-color="#029AF0"/>
</linearGradient>
<linearGradient id="paint8_linear_766_223" x1="726.794" y1="9.79412" x2="530.25" y2="132.37" gradientUnits="userSpaceOnUse">
<stop stop-color="#FFDF6D"/>
<stop offset="1" stop-color="#FF8A00"/>
</linearGradient>
<linearGradient id="paint9_linear_766_223" x1="789.882" y1="135.379" x2="647.587" y2="269.315" gradientUnits="userSpaceOnUse">
<stop stop-color="#D96DFF"/>
<stop offset="1" stop-color="#AD00FF"/>
</linearGradient>
<linearGradient id="paint10_linear_766_223" x1="853.336" y1="278.15" x2="826.004" y2="368.795" gradientUnits="userSpaceOnUse">
<stop stop-color="#A2EEFF"/>
<stop offset="1" stop-color="#029AF0"/>
</linearGradient>
<linearGradient id="paint11_linear_766_223" x1="917.882" y1="317.429" x2="903.49" y2="377.887" gradientUnits="userSpaceOnUse">
<stop stop-color="#FFDF6D"/>
<stop offset="1" stop-color="#FF8A00"/>
</linearGradient>
<linearGradient id="paint12_linear_766_223" x1="980.882" y1="276.541" x2="940.119" y2="372.862" gradientUnits="userSpaceOnUse">
<stop stop-color="#D96DFF"/>
<stop offset="1" stop-color="#AD00FF"/>
</linearGradient>
<linearGradient id="paint13_linear_766_223" x1="1043.45" y1="328.859" x2="1037.48" y2="372.332" gradientUnits="userSpaceOnUse">
<stop stop-color="#A2EEFF"/>
<stop offset="1" stop-color="#029AF0"/>
</linearGradient>
</defs>
</svg>
