<svg width="51" height="52" viewBox="0 0 51 52" fill="none" xmlns="http://www.w3.org/2000/svg">
<path fill-rule="evenodd" clip-rule="evenodd" d="M19.9704 7.39104C19.9704 6.37357 20.818 5.13292 22.9161 4.07558C24.9435 3.0538 27.8268 2.38806 31.0748 2.38806C35.3007 2.38806 38.8932 3.54423 40.7566 5.04503C40.9563 5.21262 41.1449 5.39329 41.3211 5.58588L41.3361 5.60201C41.549 5.82616 41.7329 6.0765 41.8836 6.34708C42.0496 6.67008 42.1349 7.02919 42.132 7.39314C42.1313 7.47883 42.1395 7.56249 42.1559 7.64321V10.4053C42.1243 10.5644 42.1258 10.7231 42.1559 10.8737V12.1645C42.1438 12.2237 42.1361 12.2846 42.133 12.3469C42.1076 12.8636 41.9165 13.3581 41.5885 13.7558C41.569 13.7795 41.5504 13.8038 41.5328 13.8289C41.3247 14.125 41.0843 14.3965 40.8162 14.6385C40.4939 14.9208 40.1496 15.1775 39.7875 15.4054L39.7165 15.4502C39.0851 15.8068 38.4249 16.1086 37.7428 16.3523L37.0488 16.5894C35.1149 17.125 33.1146 17.377 31.1094 17.3376L31.0825 17.3374C29.8466 17.3414 28.6128 17.2355 27.3953 17.0208C27.328 17.009 27.2598 17.003 27.1915 17.003H27.0813C26.7551 16.951 26.4555 16.8906 26.1614 16.814C26.0648 16.7889 25.9654 16.7762 25.8656 16.7762H25.8483C25.6254 16.7263 25.4049 16.6659 25.1876 16.5951C25.1612 16.5865 25.1346 16.5789 25.1078 16.5722C23.4697 16.164 21.9665 15.3296 20.7482 14.1526C20.4747 13.8633 20.2566 13.5253 20.1052 13.1558C19.8554 12.5464 19.1631 12.2566 18.5589 12.5085C17.9547 12.7604 17.6673 13.4587 17.9171 14.0681C17.9609 14.1749 18.0079 14.2802 18.0579 14.3839C16.9277 14.8469 15.9236 15.4126 15.1023 16.0717C14.1585 16.8292 13.4048 17.7538 13.0363 18.8289C11.9185 19.0832 10.8305 19.4586 9.79126 19.9492L9.64376 20.0129C9.62245 20.0222 9.60141 20.032 9.58067 20.0425L9.41493 20.126L9.39565 20.136L8.62615 20.542L8.60241 20.5548C5.99836 22.0058 3.82711 24.1336 2.31433 26.7173C0.801799 29.3006 0.00271334 32.2452 8.42574e-05 35.2453C-0.00712596 37.5138 0.448491 39.7596 1.33859 41.8429C1.71662 42.7401 2.17358 43.6014 2.70401 44.4164L2.70675 44.4206C3.19431 45.1629 3.74043 45.8643 4.33981 46.5181C4.7837 47.0023 5.5327 47.0318 6.01273 46.5841C6.49277 46.1364 6.52207 45.3809 6.07817 44.8968C5.56652 44.3387 5.10022 43.74 4.68377 43.1066C4.98053 43.1919 5.30987 43.1608 5.59852 42.9934L6.54559 42.4442C7.11239 42.1155 7.30767 41.3855 6.98176 40.8139C6.65585 40.2422 5.93217 40.0452 5.36537 40.3739L4.41829 40.9232C4.13016 41.0903 3.93803 41.3611 3.86158 41.6621C3.73921 41.4138 3.62417 41.1618 3.51662 40.9063L3.51406 40.9004C2.75161 39.1168 2.36141 37.194 2.36776 35.2517L2.36777 35.2487C2.36821 34.683 2.40167 34.1196 2.46737 33.5613C2.64135 33.8094 2.90866 33.9909 3.2288 34.0477L4.30609 34.2388C4.95003 34.3529 5.56383 33.919 5.67705 33.2695C5.79027 32.62 5.36004 32.001 4.7161 31.8868L3.6388 31.6957C3.32133 31.6394 3.01117 31.7164 2.76473 31.8867C3.09522 30.5022 3.62879 29.1686 4.35305 27.9317C5.03673 26.764 5.87718 25.7049 6.84609 24.782C6.82028 25.087 6.91004 25.402 7.12143 25.6543L7.83173 26.502C8.25375 27.0057 9.00069 27.069 9.50007 26.6433C9.99945 26.2177 10.0622 25.4643 9.64016 24.9606L8.92985 24.1129C8.72044 23.8629 8.431 23.7214 8.13152 23.6943C8.64093 23.3123 9.17669 22.9638 9.73574 22.6516L10.4835 22.2571L10.6084 22.1941L10.7422 22.1363C10.7546 22.1309 10.7669 22.1253 10.7791 22.1196C11.8301 21.6217 12.94 21.2624 14.0814 21.0502C14.1211 21.0488 14.1612 21.0453 14.2014 21.0397L14.2177 21.0373C14.2623 21.0351 14.3066 21.0303 14.3506 21.023C15.0978 20.8993 15.8536 20.8367 16.6108 20.8358L16.6124 20.8358C18.3407 20.8314 20.0553 21.1452 21.6719 21.7616C22.2835 21.9948 22.9667 21.6838 23.1979 21.067C23.4291 20.4502 23.1208 19.7611 22.5092 19.5279C20.6234 18.8088 18.6233 18.4427 16.6072 18.4477L16.608 18.4477L16.6094 19.6418L16.6064 18.4477C16.4075 18.448 16.2086 18.4519 16.0099 18.4594C16.1724 18.2871 16.3607 18.1137 16.5766 17.9404C17.3275 17.3377 18.3569 16.7855 19.6197 16.3418C21.028 17.5546 22.6977 18.4248 24.4998 18.8805C24.7139 18.9492 24.9303 19.0103 25.1485 19.0637C26.1858 20.4184 27.8742 21.4759 29.8367 22.2104C32.022 23.0283 34.6822 23.4984 37.5277 23.4984H38.5577L38.5823 23.4982C41.5114 23.4367 44.3918 22.731 47.0224 21.4303C47.6094 21.14 47.852 20.4247 47.5642 19.8326C47.2764 19.2404 46.5672 18.9957 45.9802 19.286C43.6627 20.4319 41.1254 21.0544 38.5452 21.1104H37.5277C34.9276 21.1104 32.5505 20.679 30.6605 19.9715C30.4301 19.8853 30.2088 19.7957 29.9967 19.7032C30.3564 19.719 30.7165 19.7264 31.0767 19.7254C33.317 19.7681 35.5517 19.4842 37.7115 18.8823C37.7332 18.8762 37.7547 18.8696 37.776 18.8623L38.51 18.6117L38.5248 18.6064C39.3464 18.3133 40.1414 17.9493 40.9009 17.5182C40.9167 17.5092 40.9323 17.4999 40.9478 17.4902L41.0425 17.4305C41.5123 17.1346 41.9582 16.8019 42.376 16.4352L42.3868 16.4255C42.7792 16.0725 43.1319 15.6771 43.4385 15.2465C44.0185 14.529 44.3781 13.6583 44.4763 12.7412C44.507 12.6349 44.5236 12.5224 44.5236 12.406V12.2741C45.4852 12.6534 46.3956 13.1588 47.2307 13.7788C47.4252 13.9402 47.6094 14.1139 47.782 14.2989L47.7846 14.3017C47.9968 14.5276 48.1788 14.7805 48.3262 15.0539L48.3262 15.0539L48.3326 15.0655C48.5106 15.3873 48.6056 15.7491 48.6087 16.1176C48.6093 16.1959 48.6174 16.2723 48.6323 16.3462V21.0303L48.6316 21.0494L48.6312 21.0668C48.6231 21.5563 48.4661 22.0315 48.1813 22.4279L48.1813 22.4279L48.175 22.4368C47.9594 22.7428 47.7089 23.0221 47.4285 23.2689C45.9854 24.4024 44.2993 25.18 42.5049 25.5393C42.4928 25.5417 42.4808 25.5443 42.4688 25.5471C40.9731 25.8959 39.4447 26.0818 37.9098 26.1015H36.3818C35.136 26.0429 33.898 25.8705 32.683 25.5866C32.0502 25.4208 31.4278 25.2174 30.8189 24.9774L30.7937 24.9679L30.7751 24.9612C30.3358 24.8079 29.9064 24.6274 29.4892 24.4208C28.9024 24.1301 28.193 24.3743 27.9048 24.9662C27.844 25.0911 27.8068 25.2214 27.7915 25.3521C27.6467 25.7346 27.7009 26.1822 27.9728 26.525C28.059 26.6337 28.1348 26.7357 28.2028 26.8361C28.2497 26.9312 28.3086 27.0186 28.3772 27.0966C29.0798 28.0937 29.6497 29.1795 30.0723 30.3264L30.0771 30.3391C30.1027 30.4063 30.1204 30.4668 30.1475 30.5598L30.1475 30.5598L30.1476 30.5602C30.1627 30.6117 30.1806 30.6731 30.2044 30.7511C30.2314 30.8396 30.2614 30.9161 30.2804 30.9635L30.3045 31.023C30.3127 31.0852 30.3257 31.1468 30.3436 31.2071C30.6381 32.2024 30.8168 33.2289 30.8762 34.2659L30.8779 34.2908C30.8882 34.4231 30.8882 34.556 30.8779 34.6883C30.8742 34.7354 30.8733 34.7827 30.8752 34.8298C30.8745 34.8457 30.8742 34.8617 30.8742 34.8776L30.8742 35.2458L30.9748 35.246L30.9752 35.2472L30.8742 35.2471C30.8724 36.3295 30.7478 37.4081 30.5029 38.4619L30.4974 38.4868L30.4925 38.5115C30.466 38.6521 30.4323 38.7911 30.3915 38.9281C30.3862 38.946 30.3813 38.9639 30.3768 38.982C30.337 39.1427 30.2859 39.3188 30.2263 39.5234C29.8887 40.6202 29.4208 41.6718 28.8328 42.6553L28.5632 43.063L28.5561 43.074C27.5931 44.5664 26.3645 45.8659 24.9324 46.9071L24.7103 47.0639L24.7141 47.0694L24.7061 47.0751L24.7023 47.0696L24.7065 47.0666C23.9212 47.611 23.0881 48.0724 22.2205 48.4465C22.3529 48.1691 22.3796 47.8405 22.2691 47.5276L21.9021 46.4888C21.6826 45.8676 21.0054 45.5435 20.3896 45.7648C19.7737 45.9862 19.4523 46.6692 19.6718 47.2904L20.0387 48.3292C20.1504 48.6453 20.3806 48.8845 20.661 49.014C19.3486 49.4068 17.9798 49.6103 16.5954 49.6119C15.1988 49.6139 13.815 49.4082 12.4875 49.0059C12.7679 48.8789 12.9995 48.6426 13.114 48.3286L13.4928 47.2898C13.7185 46.6709 13.404 45.9847 12.7904 45.757C12.1768 45.5294 11.4964 45.8465 11.2707 46.4654L10.8918 47.5043C10.7766 47.8202 10.8022 48.1536 10.9364 48.4347C10.5461 48.2645 10.1627 48.0763 9.78746 47.8704L9.77312 47.8628C9.55415 47.7465 9.38076 47.6479 9.24009 47.5454C9.21287 47.5256 9.18483 47.507 9.15604 47.4895L8.91927 47.3463C8.35863 47.007 7.63144 47.1903 7.29506 47.7558C6.95867 48.3213 7.14047 49.0547 7.70111 49.394L7.89816 49.5132C8.16723 49.7041 8.44536 49.8565 8.6633 49.9722C11.0986 51.3067 13.8269 52.0039 16.5984 52C19.7975 51.9963 22.9246 51.0669 25.6104 49.3277C27.4021 49.7388 29.2351 49.9425 31.0737 49.9343C33.4081 49.9505 35.7315 49.6112 37.9655 48.9277C37.9758 48.9245 37.986 48.9212 37.9962 48.9178L38.1605 48.8626C39.7188 48.3786 41.171 47.5985 42.4388 46.5641C42.4485 46.5562 42.4581 46.5481 42.4675 46.5399C42.8983 46.1651 43.2829 45.7394 43.613 45.2721C44.1462 44.5366 44.4554 43.6619 44.505 42.7549C44.5172 42.6862 44.5236 42.6155 44.5236 42.5433V33.982V33.6478V30.6984C44.5236 30.039 43.9935 29.5044 43.3397 29.5044C42.6859 29.5044 42.1559 30.039 42.1559 30.6984V33.4113C42.1403 33.4892 42.1323 33.5699 42.1327 33.6525C42.1345 34.119 42.0007 34.5757 41.7482 34.9663L41.7054 35.0268L41.7038 35.029C41.4822 35.3384 41.2273 35.622 40.9437 35.8746L40.6176 36.1398C39.8892 36.6768 39.0935 37.1142 38.2512 37.4407L37.7808 37.6258C36.1956 38.1805 34.5498 38.5325 32.8817 38.6749C33.0691 37.7867 33.1839 36.8847 33.2249 35.978C34.5406 35.8639 35.8452 35.639 37.125 35.3052C37.1407 35.3011 37.1564 35.2967 37.1719 35.2919L37.3895 35.2258L37.3896 35.2258C37.6944 35.1334 38.011 35.0374 38.3085 34.9342C38.934 34.725 39.5453 34.4747 40.1384 34.1851L40.1507 34.179L40.1738 34.167C40.2161 34.1446 40.2615 34.1208 40.3089 34.0959L40.3093 34.0957L40.3096 34.0956L40.3098 34.0954C40.481 34.0057 40.6795 33.9016 40.862 33.7933C41.4255 33.459 41.6136 32.7271 41.2821 32.1587C40.9506 31.5903 40.225 31.4006 39.6615 31.735C39.5372 31.8087 39.4143 31.8732 39.2568 31.9559C39.2051 31.983 39.1497 32.0121 39.0893 32.0442C38.5926 32.2858 38.081 32.4946 37.5575 32.6694L37.5575 32.6693L37.5436 32.6741C37.2933 32.7612 37.0321 32.8404 36.73 32.9321L36.509 32.9992C35.4222 33.2814 34.3154 33.4764 33.1993 33.5826C33.1077 32.5857 32.9224 31.5996 32.6455 30.6376C32.6172 30.4381 32.5595 30.2826 32.5296 30.2042C32.5145 30.1645 32.4925 30.1103 32.4816 30.0836L32.4758 30.0693C32.4699 30.0545 32.4669 30.0467 32.4659 30.0438C32.4604 30.0258 32.4534 30.0017 32.4451 29.9732C32.4098 29.8524 32.3512 29.6517 32.2896 29.4888C32.0692 28.8914 31.8147 28.3082 31.5276 27.7419C31.7188 27.7984 31.9109 27.8518 32.1039 27.9022C32.1134 27.9047 32.1229 27.9071 32.1325 27.9093C33.5016 28.2302 34.8968 28.4241 36.3009 28.4884C36.3188 28.4892 36.3367 28.4896 36.3546 28.4896H37.9172V28.4897L37.9319 28.4895C39.6329 28.4682 41.3267 28.2632 42.9843 27.878C45.1454 27.4422 47.1753 26.5015 48.9108 25.1313C48.9256 25.1196 48.9402 25.1076 48.9544 25.0952C49.3862 24.7196 49.7715 24.2928 50.1021 23.8243C50.6568 23.05 50.9683 22.1261 50.997 21.1722C50.999 21.1439 51 21.1153 51 21.0865V15.6179C51 15.3982 50.9412 15.1924 50.8386 15.0155C50.7422 14.6302 50.5963 14.2576 50.4033 13.9076C50.1585 13.4547 49.8566 13.0356 49.505 12.661C49.2551 12.3932 48.9879 12.1424 48.7052 11.9101C48.691 11.8984 48.6764 11.887 48.6616 11.876C47.406 10.939 46.0076 10.2186 44.5236 9.74184V6.93738C44.5236 6.74333 44.4777 6.56011 44.3962 6.39812C44.3088 5.99044 44.1668 5.59504 43.9728 5.22314L43.9595 5.19844C43.711 4.74802 43.4066 4.33134 43.0538 3.95842C42.8061 3.68833 42.5409 3.43504 42.26 3.20018L42.2446 3.18752C39.8203 1.22868 35.6272 0 31.0748 0C27.5394 0 24.2786 0.719336 21.8578 1.93935C19.5075 3.12379 17.6027 4.98165 17.6027 7.39104C17.6027 9.25495 18.7554 10.7976 20.3167 11.9224C21.8921 13.0574 24.0428 13.8968 26.4716 14.3667L26.4767 14.3677C27.991 14.6537 29.5285 14.7964 31.0691 14.794C33.6764 14.8235 36.2691 14.3971 38.7322 13.5338C39.3498 13.3174 39.6765 12.6369 39.4619 12.014C39.2473 11.3911 38.5726 11.0616 37.955 11.2781C35.748 12.0516 33.4248 12.4333 31.0885 12.406V12.4059L31.0726 12.406C29.6779 12.4086 28.2859 12.2797 26.915 12.0209C24.7162 11.5952 22.9138 10.8587 21.6929 9.97912C20.4573 9.08899 19.9704 8.17788 19.9704 7.39104ZM8.6633 49.9722L8.65609 49.9683L9.22175 48.9194L8.67038 49.976L8.6633 49.9722ZM7.89816 49.5132L7.85383 49.4814L8.54696 48.5134L7.93788 49.5373L7.89816 49.5132ZM24.9324 46.9071L24.9391 46.9024L24.962 46.9355L24.9475 46.9413L24.9262 46.9116L24.9324 46.9071ZM28.8328 42.6553L28.8474 42.6332L28.9376 42.6938C28.923 42.7032 28.9087 42.7128 28.8946 42.7228L28.8197 42.6771L28.8328 42.6553ZM30.2263 39.5234L30.2288 39.5153L30.2718 39.5287L30.2662 39.5443L30.2239 39.5317L30.2263 39.5234ZM30.8752 34.8298C30.877 34.7843 30.8814 34.7389 30.8883 34.6939C30.8789 34.7547 30.8747 34.8163 30.878 34.8776C30.8767 34.8617 30.8758 34.8458 30.8752 34.8298ZM30.3045 31.023C30.2976 30.9709 30.2941 30.9183 30.2941 30.8657C30.2941 30.9485 30.3067 31.0095 30.3139 31.0388C30.3185 31.0573 30.3224 31.0687 30.3227 31.0693C30.3228 31.0697 30.322 31.0672 30.3198 31.0615L30.315 31.0491L30.3058 31.0263L30.3045 31.023ZM31.6029 42.5018C31.8191 42.048 32.0147 41.5845 32.1892 41.1126C34.3662 41.0144 36.519 40.5976 38.5797 39.874C38.5935 39.8691 38.6072 39.864 38.6208 39.8586L39.1034 39.6687C40.1495 39.2629 41.1372 38.7182 42.0404 38.0488C42.0548 38.0382 42.0688 38.0273 42.0826 38.0161L42.1559 37.9565V42.3745C42.1489 42.4244 42.1449 42.4753 42.1442 42.527C42.1377 43.0093 41.982 43.4776 41.699 43.8664L41.6881 43.8815C41.4708 44.1901 41.2179 44.4714 40.9347 44.7197C39.9022 45.5589 38.7202 46.1916 37.4523 46.5838L37.4251 46.5926L37.263 46.6471C35.2598 47.2583 33.1766 47.5615 31.0837 47.5463V47.5462L31.0697 47.5463C30.0732 47.551 29.0785 47.4867 28.0927 47.3543C28.8684 46.6058 29.5716 45.7826 30.1919 44.8955H31.1001C32.1728 44.8957 33.2444 44.825 34.308 44.684C35.4577 44.5566 36.5956 44.3376 37.7111 44.0292C37.7241 44.0256 37.737 44.0218 37.7498 44.0178L38.2825 43.8506C38.2991 43.8454 38.3155 43.8398 38.3318 43.8339L38.3487 43.8278C38.6259 43.7272 38.9428 43.6121 39.2434 43.4815C39.8429 43.2475 40.4251 42.9705 40.9854 42.6527C41.5553 42.3294 41.7574 41.6014 41.4369 41.0267C41.1164 40.4519 40.3946 40.248 39.8248 40.5712C39.357 40.8366 38.8707 41.0674 38.3699 41.2618C38.3541 41.2679 38.3385 41.2743 38.323 41.2811C38.0984 41.3797 37.8473 41.4717 37.5543 41.5781L37.066 41.7314C36.0732 42.0048 35.0606 42.1988 34.0376 42.3116L34.0114 42.3148C33.2124 42.4211 32.4084 42.4835 31.6029 42.5018ZM41.6938 10.9135C41.6938 11.4674 41.2486 11.9165 40.6994 11.9165C40.1502 11.9165 39.7049 11.4674 39.7049 10.9135C39.7049 10.3596 40.1502 9.9105 40.6994 9.9105C41.2486 9.9105 41.6938 10.3596 41.6938 10.9135ZM13.9531 24.8996C15.7264 24.4405 17.5884 24.4531 19.3569 24.9373C19.9879 25.11 20.3606 25.766 20.1893 26.4024C20.018 27.0388 19.3677 27.4147 18.7367 27.2419C17.3273 26.8561 15.8415 26.8561 14.4321 27.2419C14.3647 27.2604 14.2958 27.2728 14.2264 27.279C13.7652 27.4105 13.3184 27.5888 12.8927 27.8113C12.6778 27.9307 12.4716 28.0511 12.252 28.1839L12.0129 28.3332C11.8924 28.4093 11.7687 28.5074 11.5823 28.6578C11.5746 28.664 11.5669 28.6701 11.559 28.6761C11.1579 28.9836 10.7853 29.3273 10.4461 29.7029C10.3434 29.8277 10.2485 29.9476 10.1613 30.0627L10.1516 30.0755C9.03525 31.5073 8.43182 33.2779 8.43957 35.0994L8.43958 35.1026C8.44142 36.2755 8.68796 37.4348 9.16317 38.5052C10.0557 40.4776 11.6731 42.023 13.6741 42.8152C14.2738 43.0471 14.8983 43.2079 15.5348 43.2943L15.5479 43.2961C15.9158 43.3502 16.2871 43.378 16.6589 43.3791C17.4378 43.381 18.2128 43.2688 18.9598 43.046C19.0215 43.0276 19.0845 43.0144 19.1482 43.0063C19.7367 42.8199 20.3019 42.5647 20.8321 42.246L20.845 42.2382C21.2453 42.0045 21.6215 41.7312 21.9679 41.4221C21.9952 41.3977 22.0237 41.3745 22.0533 41.3528C22.0994 41.3187 22.1425 41.2806 22.1821 41.239C22.206 41.214 22.2309 41.19 22.2568 41.1671L22.3333 41.0996L22.5393 40.9022C23.1683 40.2599 23.6881 39.5173 24.0777 38.7043L24.0846 38.6899L24.1456 38.5672L24.1954 38.4415C24.2137 38.3936 24.2313 38.3479 24.2484 38.3036L24.2487 38.3028L24.2493 38.3013C24.2934 38.187 24.3337 38.0825 24.3709 37.9779C24.678 37.0925 24.8352 36.1612 24.8358 35.2231C24.8358 35.2029 24.8363 35.1827 24.8374 35.1624C24.8501 34.913 24.8501 34.6631 24.8374 34.4137C24.8363 34.3933 24.8358 34.3728 24.8358 34.3523V34.2926C24.8358 34.2713 24.8364 34.25 24.8375 34.2288C24.7512 33.4344 24.5458 32.6578 24.2282 31.9255C24.1158 31.6763 24.0162 31.4674 23.9026 31.2671L23.8893 31.2429C23.7248 30.9362 23.5382 30.642 23.3312 30.3627C22.9397 29.8346 23.0469 29.0863 23.5705 28.6915C24.0942 28.2966 24.8361 28.4047 25.2276 28.9328C25.5009 29.3016 25.7474 29.6898 25.9652 30.0944C26.1315 30.3892 26.2657 30.6755 26.3871 30.9447L26.3936 30.9592C26.8172 31.9334 27.0882 32.9679 27.1971 34.0259C27.2077 34.1277 27.21 34.2302 27.2039 34.3323C27.2183 34.6397 27.2182 34.9476 27.2034 35.255C27.1993 36.4524 26.9968 37.6408 26.6042 38.771L26.6018 38.7777C26.5522 38.9179 26.4927 39.072 26.4446 39.1966L26.4024 39.3063L26.3968 39.3211L26.3256 39.5002C26.3134 39.5309 26.3 39.5611 26.2853 39.5907L26.2059 39.7509C25.7003 40.804 25.0253 41.7654 24.2083 42.5961L24.1973 42.6072L24.1832 42.6209L23.9464 42.8478C23.9347 42.859 23.9228 42.87 23.9106 42.8807L23.8506 42.9337C23.7405 43.0455 23.6229 43.1494 23.4985 43.2446C23.0465 43.6435 22.5573 43.9973 22.0378 44.3012C21.301 44.7434 20.5123 45.0911 19.6901 45.3361C19.6243 45.3558 19.5569 45.3696 19.4889 45.3774C18.566 45.6383 17.6115 45.7695 16.6526 45.7672C16.1708 45.7658 15.6891 45.73 15.2122 45.6601C14.3944 45.5485 13.5921 45.3414 12.8217 45.0431L12.814 45.0401C10.2375 44.0216 8.15507 42.032 7.00723 39.4923L7.00415 39.4855C6.39211 38.1085 6.07449 36.617 6.0719 35.108C6.06224 32.7509 6.84226 30.4596 8.28537 28.6057C8.39748 28.458 8.51676 28.3078 8.64294 28.155C8.65333 28.1425 8.66397 28.1301 8.67486 28.118C9.11316 27.6298 9.59503 27.1832 10.1144 26.784L10.1213 26.7784L10.1214 26.7784L10.1214 26.7783L10.1215 26.7783L10.1215 26.7783C10.2877 26.6442 10.5114 26.4636 10.7599 26.3069L10.7642 26.3042L11.0268 26.1402C11.274 25.9907 11.512 25.8518 11.7639 25.712L11.7879 25.699C12.4117 25.3717 13.0697 25.1153 13.7497 24.9349C13.8164 24.9172 13.8845 24.9054 13.9531 24.8996ZM20.6474 25.7563C21.1502 25.3348 21.8966 25.4043 22.3145 25.9115L23.013 26.7592C23.4308 27.2664 23.3619 28.0192 22.8591 28.4407C22.3562 28.8622 21.6098 28.7927 21.1919 28.2855L20.4935 27.4377C20.0756 26.9305 20.1445 26.1777 20.6474 25.7563ZM16.6916 30.0362C16.8222 29.39 16.4087 28.7594 15.768 28.6277C15.1274 28.496 14.5022 28.913 14.3716 29.5592L13.2072 35.3206C13.1272 35.7167 13.2512 36.1267 13.5369 36.4102C13.8225 36.6937 14.2309 36.8122 14.6223 36.7251L17.4675 36.092L16.667 40.0531C16.5364 40.6993 16.9499 41.3299 17.5905 41.4616C18.2312 41.5933 18.8564 41.1762 18.987 40.5301L20.1514 34.7687C20.2314 34.3726 20.1074 33.9626 19.8217 33.6791C19.5361 33.3956 19.1277 33.2771 18.7363 33.3642L15.891 33.9973L16.6916 30.0362Z" fill="url(#paint0_linear_1156_4817)"/>
<defs>
<linearGradient id="paint0_linear_1156_4817" x1="45.3352" y1="2.24809" x2="35.4095" y2="53.9041" gradientUnits="userSpaceOnUse">
<stop stop-color="#A2EEFF"/>
<stop offset="1" stop-color="#029AF0"/>
</linearGradient>
</defs>
</svg>
