<svg width="180" height="43" viewBox="0 0 180 43" fill="none" xmlns="http://www.w3.org/2000/svg">
<path d="M43.7708 32.4728L47.1448 12.5903H61.7985L61.1546 16.4186H51.4677L50.7453 20.5866H59.2907L58.6494 24.4766H50.1039L49.3815 28.6445H59.0684L58.4245 32.4728H43.7708Z" fill="white"/>
<path d="M60.8226 32.4728L64.1966 12.5903H69.1634L66.4333 28.6445H75.8117L75.1678 32.4728H60.8226Z" fill="white"/>
<path d="M77.1212 32.4728L80.4952 12.5903H95.1489L94.505 16.4186H84.8182L84.0957 20.5866H92.6411L91.9998 24.4766H83.4544L82.7319 28.6445H92.4188L91.7749 32.4728H77.1212Z" fill="white"/>
<path d="M94.173 32.4728L97.547 12.5903H102.514L101.198 20.3087L109.363 12.5903H115.039L106.551 20.7101L112.097 32.4728H106.791L102.95 23.89L100.156 26.4525L99.1398 32.4728H94.173Z" fill="white"/>
<path d="M118.171 32.4728L120.901 16.4186H115.071L115.715 12.5903H132.343L131.699 16.4186H125.868L123.138 32.4728H118.171Z" fill="white"/>
<path d="M130.868 32.4728L134.242 12.5903H144.175C145.491 12.5903 146.614 12.8785 147.543 13.4548C148.491 14.0105 149.172 14.8029 149.584 15.832C150.017 16.8406 150.107 18.0344 149.856 19.4134C149.644 20.7512 149.106 21.9244 148.243 22.9329C147.4 23.9415 146.351 24.6927 145.097 25.1867C145.332 25.4131 145.507 25.6704 145.622 25.9585C145.757 26.2261 145.886 26.6069 146.009 27.1009L147.465 32.4728H142.282L140.9 27.4096C140.778 26.9362 140.59 26.6172 140.336 26.4525C140.103 26.2673 139.718 26.1747 139.184 26.1747H136.901L135.834 32.4728H130.868ZM137.545 22.3463H141.216C142.182 22.3463 142.975 22.1097 143.593 21.6363C144.23 21.1423 144.632 20.4013 144.796 19.4134C144.982 18.4254 144.931 17.6845 144.643 17.1905C144.375 16.6759 143.644 16.4186 142.452 16.4186H138.564L137.545 22.3463Z" fill="white"/>
<path d="M150.179 32.4728L153.553 12.5903H158.52L155.146 32.4728H150.179Z" fill="white"/>
<path d="M158.313 32.4728L161.687 12.5903H166.654L165.338 20.3087L173.503 12.5903H179.179L170.691 20.7101L176.237 32.4728H170.931L167.09 23.89L164.296 26.4525L163.28 32.4728H158.313Z" fill="white"/>
<path d="M29.6557 16.8266H16.198L17.7876 1.03838C17.8299 0.617733 17.6105 0.217653 17.2529 0.0643515C16.8945 -0.0908196 16.4887 0.0419171 16.2616 0.384041L0.162862 24.6879C-0.0252383 24.9721 -0.052352 25.3488 0.0916891 25.662C0.236578 25.977 0.528896 26.1742 0.847481 26.1742H14.3052L12.7156 41.9624C12.6733 42.383 12.8927 42.7831 13.2503 42.9364C13.3503 42.9794 13.4536 43 13.557 43C13.8213 43 14.0781 42.8635 14.2416 42.6167L30.3403 18.3128C30.5284 18.0287 30.5555 17.652 30.4115 17.3388C30.2666 17.0238 29.9743 16.8266 29.6557 16.8266Z" fill="url(#paint0_linear_925_231)"/>
<path d="M16.198 16.8266L17.7876 1.03838C17.8299 0.617733 17.6105 0.217653 17.2529 0.0643515C16.8945 -0.0908196 16.4887 0.0419171 16.2616 0.384041L0.162862 24.6879C-0.0252383 24.9721 -0.052352 25.3488 0.0916891 25.662C0.236578 25.977 0.528896 26.1742 0.847481 26.1742H14.3052C15.2516 21.5 15.2516 21.5 16.198 16.8266Z" fill="url(#paint1_linear_925_231)"/>
<path d="M16.201 16.8281L28.4249 16.8281L24.3226 25.8768L12.9531 39.6012L14.2255 26.1745L16.201 16.8281Z" fill="url(#paint2_linear_925_231)"/>
<defs>
<linearGradient id="paint0_linear_925_231" x1="21.0639" y1="16.9302" x2="13.5344" y2="43.5594" gradientUnits="userSpaceOnUse">
<stop stop-color="#029BF1"/>
<stop offset="1" stop-color="#A1EEFF"/>
</linearGradient>
<linearGradient id="paint1_linear_925_231" x1="15.8165" y1="1.13158" x2="8.87554" y2="26.1684" gradientUnits="userSpaceOnUse">
<stop stop-color="#A2EEFF"/>
<stop offset="1" stop-color="#029AF0"/>
</linearGradient>
<linearGradient id="paint2_linear_925_231" x1="14.2981" y1="21.7511" x2="20.3035" y2="24.0919" gradientUnits="userSpaceOnUse">
<stop stop-color="#005796"/>
<stop offset="1" stop-color="#0091E2" stop-opacity="0"/>
</linearGradient>
</defs>
</svg>
