<svg xmlns="http://www.w3.org/2000/svg" fill="none" viewBox="100 85 50.29 45.68">
<g filter="url(#filter0_dd_925_682)">
<path fill-rule="evenodd" clip-rule="evenodd" d="M134.043 88.6665C132.241 88.1862 130.334 88.2883 128.593 88.9583C126.853 89.6283 125.37 90.8317 124.355 92.3963L124.351 92.4029C123.42 93.8236 122.927 95.4859 122.932 97.1841C122.942 98.1615 123.113 99.1281 123.438 100.045H128.54H128.597V96.6913C128.589 96.6264 128.586 96.5604 128.586 96.4936C128.586 96.4267 128.589 96.3607 128.597 96.2959V95.0329C128.597 94.6975 128.695 94.385 128.864 94.1225H128.54C127.61 94.1225 126.856 93.3685 126.856 92.4383C126.856 91.5082 127.61 90.7541 128.54 90.7541H129.16H131.254C131.398 89.9696 132.085 89.375 132.911 89.375C133.841 89.375 134.595 90.129 134.595 91.0592V91.5911C134.692 91.67 134.785 91.754 134.874 91.843C135.566 92.5349 135.957 93.4719 135.962 94.4505L135.962 94.4601C135.962 95.0294 135.832 95.5852 135.587 96.0876C135.652 96.1548 135.715 96.2242 135.775 96.2959C136.429 97.0687 136.789 98.047 136.792 99.059C136.792 99.0664 136.792 99.0738 136.792 99.0812C136.789 99.4084 136.749 99.7315 136.675 100.045H136.919C137.849 100.045 138.604 100.799 138.604 101.729C138.604 102.659 137.849 103.413 136.919 103.413H130.298L130.281 103.414L130.264 103.413H128.54H122.36C122.336 103.414 122.312 103.414 122.288 103.413H114.466C114.338 103.444 114.206 103.46 114.072 103.46C113.938 103.46 113.806 103.444 113.678 103.413H112.634H110.893H104.729C104.702 103.414 104.676 103.414 104.649 103.413H103.368V109.745H105.214C106.144 109.745 106.898 110.499 106.898 111.429C106.898 112.359 106.144 113.113 105.214 113.113H103.368V113.473H107.994V109.349C107.994 108.419 108.748 107.665 109.678 107.665C110.608 107.665 111.362 108.419 111.362 109.349V115.157C111.362 116.087 110.608 116.841 109.678 116.841H103.368V127.31H141.584L141.594 127.31H144.972C145.489 127.31 145.985 127.104 146.351 126.739C146.716 126.373 146.922 125.877 146.922 125.36V105.352C146.922 104.835 146.716 104.339 146.351 103.973C145.985 103.607 145.489 103.402 144.972 103.402H143.278V124.319C143.278 125.25 142.524 126.004 141.594 126.004C140.664 126.004 139.91 125.25 139.91 124.319V101.718C139.91 100.787 140.664 100.033 141.594 100.033H144.972C146.382 100.033 147.735 100.594 148.733 101.591C149.73 102.589 150.29 103.941 150.29 105.352V125.36C150.29 126.77 149.73 128.123 148.733 129.12C147.735 130.118 146.382 130.678 144.972 130.678H141.604L141.594 130.678H101.684C100.754 130.678 100 129.924 100 128.994V115.157V101.729C100 100.799 100.754 100.045 101.684 100.045H102.315C101.976 98.6271 101.892 97.153 102.074 95.6925C102.362 93.3804 103.307 91.1992 104.795 89.4068C106.284 87.6144 108.255 86.2857 110.475 85.5777C112.694 84.8698 115.071 84.8122 117.322 85.4118C118.221 85.6511 118.756 86.5738 118.516 87.4727C118.277 88.3715 117.354 88.9061 116.455 88.6667C114.825 88.2327 113.105 88.2744 111.498 88.7869C109.891 89.2994 108.464 90.2613 107.386 91.5589C106.309 92.8566 105.625 94.4356 105.416 96.1094C105.25 97.4392 105.39 98.7846 105.818 100.045H110.228L109.283 99.0043C108.79 98.46 108.706 97.6583 109.076 97.0236L112.617 90.9582C112.919 90.4411 113.473 90.1231 114.072 90.1231C114.671 90.1231 115.224 90.4411 115.526 90.9582L119.067 97.0236C119.438 97.6583 119.354 98.46 118.86 99.0043L117.916 100.045H119.925C119.694 99.1205 119.572 98.1694 119.563 97.2107L119.563 97.2005C119.555 94.8423 120.24 92.5336 121.531 90.5605C122.932 88.4009 124.981 86.7398 127.383 85.8148C129.787 84.8894 132.422 84.7483 134.911 85.4118C135.809 85.6514 136.344 86.5743 136.104 87.473C135.865 88.3718 134.942 88.9062 134.043 88.6665ZM132.308 94.1283C132.289 94.1247 132.269 94.1228 132.25 94.1225H132.245H131.698C131.829 94.3257 131.918 94.5588 131.951 94.8094H132.248L132.256 94.8092C132.259 94.8091 132.263 94.8089 132.266 94.8087C132.324 94.7846 132.384 94.7636 132.445 94.7461C132.462 94.7345 132.477 94.7215 132.492 94.7071C132.556 94.6427 132.593 94.5558 132.594 94.4649C132.592 94.3747 132.556 94.2887 132.492 94.2248C132.467 94.1999 132.439 94.1792 132.408 94.163C132.374 94.1525 132.341 94.1409 132.308 94.1283ZM132.85 98.2119C132.748 98.2083 132.649 98.1957 132.553 98.1749C132.521 98.1768 132.488 98.1778 132.455 98.1778H132.254L132.245 98.1778H131.965V99.9748H132.479C132.521 99.9748 132.564 99.9765 132.607 99.9797C132.643 99.9825 132.679 99.9837 132.715 99.9835C132.875 99.9401 133.021 99.8558 133.139 99.7384C133.317 99.5562 133.418 99.3134 133.424 99.0593C133.42 98.8436 133.343 98.6356 133.203 98.4707C133.107 98.3568 132.986 98.2685 132.85 98.2119ZM137.492 89.1778C138.054 89.1778 138.509 88.7226 138.509 88.1611C138.509 87.5995 138.054 87.1443 137.492 87.1443C136.931 87.1443 136.475 87.5995 136.475 88.1611C136.475 88.7226 136.931 89.1778 137.492 89.1778ZM120.114 89.6687C120.676 89.6687 121.131 89.2135 121.131 88.652C121.131 88.0905 120.676 87.6353 120.114 87.6353C119.553 87.6353 119.097 88.0905 119.097 88.652C119.097 89.2135 119.553 89.6687 120.114 89.6687ZM114.072 99.2694L112.608 97.6556L114.072 95.1478L115.536 97.6556L114.072 99.2694ZM114.175 121.157C114.338 121.048 114.53 120.99 114.726 120.99C115.657 120.99 116.411 120.236 116.411 119.306C116.411 118.589 115.963 117.977 115.333 117.734C115.963 117.491 116.411 116.879 116.411 116.162V108.741C116.411 107.811 115.657 107.057 114.727 107.057C113.796 107.057 113.042 107.811 113.042 108.741V116.162C113.042 116.833 113.434 117.411 114.001 117.682C113.397 117.784 112.818 118.013 112.304 118.357C111.587 118.836 111.028 119.517 110.698 120.313C110.368 121.11 110.281 121.987 110.45 122.833C110.618 123.679 111.033 124.456 111.643 125.065C112.253 125.675 113.03 126.091 113.876 126.259C114.722 126.427 115.598 126.341 116.395 126.011C117.192 125.681 117.873 125.122 118.352 124.405C118.831 123.688 119.087 122.845 119.087 121.982C119.087 121.052 118.333 120.298 117.403 120.298C116.472 120.298 115.718 121.052 115.718 121.982C115.718 122.178 115.66 122.37 115.551 122.533C115.442 122.696 115.287 122.824 115.106 122.899C114.925 122.974 114.725 122.993 114.533 122.955C114.34 122.917 114.164 122.822 114.025 122.684C113.886 122.545 113.792 122.368 113.753 122.176C113.715 121.983 113.735 121.784 113.81 121.603C113.885 121.421 114.012 121.266 114.175 121.157ZM120.664 105.843C120.664 104.913 119.91 104.159 118.98 104.159C118.05 104.159 117.296 104.913 117.296 105.843V111.651C117.296 112.581 118.05 113.335 118.98 113.335H129.229C129.896 113.335 130.473 112.948 130.746 112.385C130.845 112.999 131.076 113.587 131.424 114.109C131.903 114.826 132.584 115.385 133.381 115.715C134.178 116.045 135.054 116.131 135.9 115.963C136.746 115.795 137.523 115.379 138.133 114.77C138.743 114.16 139.158 113.383 139.326 112.537C139.494 111.691 139.408 110.814 139.078 110.018C138.748 109.221 138.189 108.54 137.472 108.061C136.755 107.582 135.912 107.326 135.05 107.326C134.119 107.326 133.365 108.08 133.365 109.01C133.365 109.94 134.119 110.694 135.05 110.694C135.246 110.694 135.438 110.752 135.601 110.861C135.764 110.97 135.891 111.125 135.966 111.307C136.041 111.488 136.061 111.687 136.023 111.88C135.984 112.072 135.89 112.249 135.751 112.388C135.612 112.527 135.436 112.621 135.243 112.659C135.051 112.698 134.851 112.678 134.67 112.603C134.489 112.528 134.334 112.401 134.225 112.237C134.116 112.074 134.058 111.883 134.058 111.686C134.058 110.756 133.304 110.002 132.373 110.002C131.663 110.002 131.056 110.441 130.808 111.063C130.57 110.423 129.953 109.967 129.229 109.967H120.664V105.843ZM123.444 106.239C122.514 106.239 121.76 106.993 121.76 107.923C121.76 108.853 122.514 109.607 123.444 109.607H126.39C127.32 109.607 128.074 108.853 128.074 107.923C128.074 106.993 127.32 106.239 126.39 106.239H123.444ZM130.223 109.092C130.868 109.092 131.392 108.569 131.392 107.923C131.392 107.278 130.868 106.755 130.223 106.755C129.577 106.755 129.054 107.278 129.054 107.923C129.054 108.569 129.577 109.092 130.223 109.092ZM121.433 116.162C121.433 115.232 122.187 114.478 123.117 114.478H127.243C128.173 114.478 128.927 115.232 128.927 116.162C128.927 117.092 128.173 117.846 127.243 117.846H123.117C122.187 117.846 121.433 117.092 121.433 116.162ZM120.231 116.162C120.231 116.808 119.708 117.331 119.062 117.331C118.417 117.331 117.894 116.808 117.894 116.162C117.894 115.517 118.417 114.993 119.062 114.993C119.708 114.993 120.231 115.517 120.231 116.162Z" fill="url(#paint0_linear_925_682)"/>
</g>
<defs>
<filter id="filter0_dd_925_682" x="0" y="0" width="250.291" height="245.678" filterUnits="userSpaceOnUse" color-interpolation-filters="sRGB">
<feFlood flood-opacity="0" result="BackgroundImageFix"/>
<feColorMatrix in="SourceAlpha" type="matrix" values="0 0 0 0 0 0 0 0 0 0 0 0 0 0 0 0 0 0 127 0" result="hardAlpha"/>
<feOffset dy="15"/>
<feGaussianBlur stdDeviation="50"/>
<feComposite in2="hardAlpha" operator="out"/>
<feColorMatrix type="matrix" values="0 0 0 0 0.379167 0 0 0 0 0.757178 0 0 0 0 0.875 0 0 0 0.7 0"/>
<feBlend mode="normal" in2="BackgroundImageFix" result="effect1_dropShadow_925_682"/>
<feColorMatrix in="SourceAlpha" type="matrix" values="0 0 0 0 0 0 0 0 0 0 0 0 0 0 0 0 0 0 127 0" result="hardAlpha"/>
<feOffset/>
<feGaussianBlur stdDeviation="20"/>
<feComposite in2="hardAlpha" operator="out"/>
<feColorMatrix type="matrix" values="0 0 0 0 0.380392 0 0 0 0 0.756863 0 0 0 0 0.87451 0 0 0 0.5 0"/>
<feBlend mode="normal" in2="effect1_dropShadow_925_682" result="effect2_dropShadow_925_682"/>
<feBlend mode="normal" in="SourceGraphic" in2="effect2_dropShadow_925_682" result="shape"/>
</filter>
<linearGradient id="paint0_linear_925_682" x1="144.704" y1="86.9748" x2="136.88" y2="132.687" gradientUnits="userSpaceOnUse">
<stop stop-color="#A2EEFF"/>
<stop offset="1" stop-color="#029AF0"/>
</linearGradient>
</defs>
</svg>