<svg xmlns="http://www.w3.org/2000/svg" fill="none" viewBox="100 85 54.26 45.5">
<g filter="url(#filter0_dd_925_676)">
<path fill-rule="evenodd" clip-rule="evenodd" d="M141.762 85C140.175 85 138.654 85.6291 137.531 86.7493C136.872 87.4062 136.871 88.4726 137.528 89.1311C138.185 89.7897 139.251 89.791 139.91 89.1341C140.401 88.6438 141.067 88.3684 141.762 88.3684C142.456 88.3684 143.121 88.6435 143.613 89.1335L143.613 89.1341L150.127 95.648L150.128 95.6488C150.618 96.1402 150.893 96.8058 150.893 97.4997C150.893 98.1937 150.618 98.8594 150.128 99.3508L150.127 99.3514L142.679 106.8C142.021 107.457 142.021 108.524 142.679 109.181C143.337 109.839 144.403 109.839 145.061 109.181L152.512 101.73C153.632 100.607 154.261 99.0859 154.261 97.4997C154.261 95.9135 153.632 94.3921 152.512 93.2691L145.994 86.7508L145.992 86.7493C144.869 85.6291 143.348 85 141.762 85ZM113.427 91.8944C112.955 91.7168 112.442 91.6788 111.95 91.7851C111.457 91.8913 111.005 92.1373 110.649 92.4935L104.134 99.0085L104.134 99.0089C103.644 99.5004 103.368 100.166 103.368 100.86C103.368 101.554 103.644 102.22 104.134 102.712L104.138 102.716L110.09 108.724C110.924 108.212 111.889 107.935 112.883 107.935L112.902 107.935L112.922 107.935C114.317 107.935 115.657 108.481 116.655 109.457L116.668 109.47L126.52 119.322C127.178 119.98 127.178 121.046 126.52 121.704C126.201 122.022 125.787 122.187 125.369 122.197C125.343 122.197 125.317 122.197 125.291 122.197C124.874 122.187 124.459 122.024 124.14 121.706L114.256 111.86C113.893 111.508 113.408 111.308 112.902 111.303C112.394 111.308 111.907 111.509 111.544 111.865C111.494 111.913 111.442 111.958 111.389 111.999C111.115 112.344 110.964 112.773 110.964 113.217C110.964 113.729 111.165 114.221 111.523 114.586L121.37 124.433L121.379 124.442C121.711 124.78 122.155 124.985 122.627 125.02C123.014 125.049 123.399 124.962 123.734 124.774C123.979 124.541 124.277 124.395 124.588 124.338C125.215 124.198 125.895 124.424 126.306 124.971C126.344 125.023 126.379 125.075 126.411 125.129L126.911 125.63L126.913 125.632C127.881 126.59 129.187 127.128 130.549 127.128C131.91 127.128 133.217 126.59 134.184 125.631L134.186 125.63L140.272 119.544L140.274 119.542C141.232 118.575 141.77 117.268 141.77 115.906C141.77 114.545 141.232 113.238 140.274 112.271L140.272 112.269L129.452 101.449L123.21 107.649L123.208 107.651C122.353 108.503 121.195 108.982 119.988 108.982C118.78 108.982 117.621 108.502 116.766 107.649L116.759 107.642C115.912 106.786 115.436 105.63 115.436 104.425C115.436 103.221 115.912 102.065 116.759 101.209L116.765 101.203L122.132 95.8362C121.706 95.8219 121.278 95.8602 120.858 95.9519C119.895 96.1618 119.013 96.6425 118.315 97.3374L118.314 97.3386L112.208 103.444C111.55 104.102 110.484 104.102 109.826 103.444C109.169 102.786 109.169 101.72 109.826 101.062L115.937 94.9519C117.091 93.8028 118.549 93.0078 120.14 92.6608C121.731 92.3138 123.388 92.4293 124.916 92.9937C124.93 92.9989 124.944 93.0043 124.958 93.0099L126.882 91.0854C127.537 90.4242 128.302 89.8814 129.142 89.4807C130.731 88.6937 132.527 88.4236 134.277 88.7088C136.033 88.9947 137.655 89.8246 138.914 91.0814L143.31 95.4781C143.968 96.1358 143.968 97.2022 143.31 97.8599C142.653 98.5176 141.586 98.5176 140.928 97.8599L136.534 93.4652L136.533 93.4648C135.774 92.7066 134.795 92.2059 133.736 92.0334C132.676 91.8608 131.589 92.0252 130.628 92.5034C130.619 92.508 130.61 92.5126 130.6 92.517C130.107 92.7513 129.658 93.0697 129.273 93.458L129.267 93.4642L126.337 96.3945C126.288 96.46 126.234 96.5227 126.175 96.5822L119.202 103.555C118.98 103.78 118.856 104.084 118.856 104.4C118.856 104.714 118.978 105.015 119.197 105.239C119.417 105.453 119.712 105.574 120.019 105.576C120.325 105.578 120.62 105.462 120.843 105.252L128.24 97.8548C128.441 97.6536 128.68 97.514 128.935 97.4359C129.53 97.2211 130.222 97.3524 130.698 97.8292L142.377 109.508C142.498 109.629 142.597 109.763 142.673 109.906C144.252 111.504 145.139 113.66 145.139 115.906C145.139 118.158 144.249 120.318 142.663 121.916L142.658 121.921L136.563 128.016L136.559 128.021C134.96 129.607 132.8 130.496 130.549 130.496C128.322 130.496 126.185 129.626 124.593 128.074C123.889 128.33 123.134 128.436 122.376 128.379C121.093 128.283 119.888 127.726 118.984 126.811L109.136 116.963L109.127 116.954C108.146 115.958 107.596 114.615 107.596 113.217C107.596 112.569 107.714 111.933 107.938 111.338L101.749 105.091L101.747 105.089C100.628 103.966 100 102.445 100 100.86C100 99.274 100.629 97.7526 101.749 96.6296L108.268 90.1109C109.082 89.2971 110.114 88.7351 111.239 88.4924C112.365 88.2496 113.536 88.3364 114.614 88.7422C115.484 89.07 115.924 90.0415 115.596 90.9119C115.269 91.7824 114.297 92.2223 113.427 91.8944ZM116.55 93.5129C117.164 93.5129 117.662 93.0151 117.662 92.4012C117.662 91.7872 117.164 91.2895 116.55 91.2895C115.936 91.2895 115.439 91.7872 115.439 92.4012C115.439 93.0151 115.936 93.5129 116.55 93.5129ZM144.394 100.426C145.008 100.426 145.505 99.9282 145.505 99.3142C145.505 98.7002 145.008 98.2025 144.394 98.2025C143.78 98.2025 143.282 98.7002 143.282 99.3142C143.282 99.9282 143.78 100.426 144.394 100.426Z" fill="url(#paint0_linear_925_676)"/>
</g>
<defs>
<filter id="filter0_dd_925_676" x="0" y="0" width="254.262" height="245.496" filterUnits="userSpaceOnUse" color-interpolation-filters="sRGB">
<feFlood flood-opacity="0" result="BackgroundImageFix"/>
<feColorMatrix in="SourceAlpha" type="matrix" values="0 0 0 0 0 0 0 0 0 0 0 0 0 0 0 0 0 0 127 0" result="hardAlpha"/>
<feOffset dy="15"/>
<feGaussianBlur stdDeviation="50"/>
<feComposite in2="hardAlpha" operator="out"/>
<feColorMatrix type="matrix" values="0 0 0 0 0.379167 0 0 0 0 0.757178 0 0 0 0 0.875 0 0 0 0.7 0"/>
<feBlend mode="normal" in2="BackgroundImageFix" result="effect1_dropShadow_925_676"/>
<feColorMatrix in="SourceAlpha" type="matrix" values="0 0 0 0 0 0 0 0 0 0 0 0 0 0 0 0 0 0 127 0" result="hardAlpha"/>
<feOffset/>
<feGaussianBlur stdDeviation="20"/>
<feComposite in2="hardAlpha" operator="out"/>
<feColorMatrix type="matrix" values="0 0 0 0 0.380392 0 0 0 0 0.756863 0 0 0 0 0.87451 0 0 0 0.5 0"/>
<feBlend mode="normal" in2="effect1_dropShadow_925_676" result="effect2_dropShadow_925_676"/>
<feBlend mode="normal" in="SourceGraphic" in2="effect2_dropShadow_925_676" result="shape"/>
</filter>
<linearGradient id="paint0_linear_925_676" x1="148.234" y1="86.9669" x2="141.01" y2="132.689" gradientUnits="userSpaceOnUse">
<stop stop-color="#A2EEFF"/>
<stop offset="1" stop-color="#029AF0"/>
</linearGradient>
</defs>
</svg>