<svg width="428" height="1169" viewBox="0 0 428 1169" fill="none" xmlns="http://www.w3.org/2000/svg">
<line opacity="0.4" x1="213.5" y1="204.5" x2="213.5" y2="1047.5" stroke="url(#paint0_linear_766_223)" stroke-width="3" stroke-linecap="round" stroke-dasharray="8 10"/>
<g filter="url(#filter0_ddiii_766_223)">
<circle cx="214" cy="405" r="38" fill="url(#paint1_linear_766_223)"/>
</g>
<path d="M208.253 419.16C206.653 419.16 205.473 418.73 204.713 417.87C203.953 417.01 203.553 415.78 203.513 414.18C198.593 413.52 196.133 410.27 196.133 404.43C196.133 400.89 196.923 398.33 198.503 396.75C200.083 395.17 202.423 394.38 205.523 394.38C208.623 394.38 210.963 395.17 212.543 396.75C214.123 398.33 214.913 400.89 214.913 404.43C214.913 410.49 212.263 413.76 206.963 414.24C207.003 415.04 207.193 415.58 207.533 415.86C207.893 416.14 208.443 416.28 209.183 416.28C209.523 416.28 209.883 416.25 210.263 416.19C210.643 416.13 210.993 416.05 211.313 415.95V418.77C210.973 418.87 210.523 418.96 209.963 419.04C209.403 419.12 208.833 419.16 208.253 419.16ZM205.523 410.85C207.343 410.85 208.673 410.33 209.513 409.29C210.373 408.23 210.803 406.61 210.803 404.43C210.803 402.01 210.373 400.31 209.513 399.33C208.673 398.33 207.343 397.83 205.523 397.83C203.703 397.83 202.363 398.33 201.503 399.33C200.663 400.31 200.243 402.01 200.243 404.43C200.243 406.61 200.663 408.23 201.503 409.29C202.363 410.33 203.703 410.85 205.523 410.85ZM226.499 414V409.95H217.139V407.19L227.009 394.68H230.549V406.68H232.439V409.95H230.549V414H226.499ZM221.009 406.83H227.189V399.15L221.009 406.83Z" fill="black"/>
<g filter="url(#filter1_ddiii_766_223)">
<circle cx="214" cy="607" r="38" fill="url(#paint2_linear_766_223)"/>
</g>
<g filter="url(#filter2_ddiii_766_223)">
<circle cx="214" cy="809" r="38" fill="url(#paint3_linear_766_223)"/>
</g>
<g filter="url(#filter3_ddiii_766_223)">
<circle cx="214" cy="1011" r="38" fill="url(#paint4_linear_766_223)"/>
</g>
<path d="M211.417 621.16C209.817 621.16 208.637 620.73 207.877 619.87C207.117 619.01 206.717 617.78 206.677 616.18C201.757 615.52 199.297 612.27 199.297 606.43C199.297 602.89 200.087 600.33 201.667 598.75C203.247 597.17 205.587 596.38 208.687 596.38C211.787 596.38 214.127 597.17 215.707 598.75C217.287 600.33 218.077 602.89 218.077 606.43C218.077 612.49 215.427 615.76 210.127 616.24C210.167 617.04 210.357 617.58 210.697 617.86C211.057 618.14 211.607 618.28 212.347 618.28C212.687 618.28 213.047 618.25 213.427 618.19C213.807 618.13 214.157 618.05 214.477 617.95V620.77C214.137 620.87 213.687 620.96 213.127 621.04C212.567 621.12 211.997 621.16 211.417 621.16ZM208.687 612.85C210.507 612.85 211.837 612.33 212.677 611.29C213.537 610.23 213.967 608.61 213.967 606.43C213.967 604.01 213.537 602.31 212.677 601.33C211.837 600.33 210.507 599.83 208.687 599.83C206.867 599.83 205.527 600.33 204.667 601.33C203.827 602.31 203.407 604.01 203.407 606.43C203.407 608.61 203.827 610.23 204.667 611.29C205.527 612.33 206.867 612.85 208.687 612.85ZM224.053 616V600.34L220.903 600.85V597.46L228.103 596.38V616H224.053Z" fill="black"/>
<path d="M208.737 823.16C207.137 823.16 205.957 822.73 205.197 821.87C204.437 821.01 204.037 819.78 203.997 818.18C199.077 817.52 196.617 814.27 196.617 808.43C196.617 804.89 197.407 802.33 198.987 800.75C200.567 799.17 202.907 798.38 206.007 798.38C209.107 798.38 211.447 799.17 213.027 800.75C214.607 802.33 215.397 804.89 215.397 808.43C215.397 814.49 212.747 817.76 207.447 818.24C207.487 819.04 207.677 819.58 208.017 819.86C208.377 820.14 208.927 820.28 209.667 820.28C210.007 820.28 210.367 820.25 210.747 820.19C211.127 820.13 211.477 820.05 211.797 819.95V822.77C211.457 822.87 211.007 822.96 210.447 823.04C209.887 823.12 209.317 823.16 208.737 823.16ZM206.007 814.85C207.827 814.85 209.157 814.33 209.997 813.29C210.857 812.23 211.287 810.61 211.287 808.43C211.287 806.01 210.857 804.31 209.997 803.33C209.157 802.33 207.827 801.83 206.007 801.83C204.187 801.83 202.847 802.33 201.987 803.33C201.147 804.31 200.727 806.01 200.727 808.43C200.727 810.61 201.147 812.23 201.987 813.29C202.847 814.33 204.187 814.85 206.007 814.85ZM218.223 818V816.05C218.763 814.89 219.473 813.85 220.353 812.93C221.233 811.99 222.193 811.06 223.233 810.14C224.013 809.44 224.653 808.86 225.153 808.4C225.653 807.94 226.043 807.53 226.323 807.17C226.603 806.81 226.803 806.44 226.923 806.06C227.043 805.68 227.103 805.21 227.103 804.65C227.103 802.79 225.923 801.86 223.563 801.86C222.763 801.86 221.963 801.95 221.163 802.13C220.383 802.29 219.633 802.51 218.913 802.79V799.22C219.673 798.96 220.553 798.76 221.553 798.62C222.573 798.46 223.543 798.38 224.463 798.38C226.703 798.38 228.383 798.94 229.503 800.06C230.643 801.16 231.213 802.66 231.213 804.56C231.213 805.88 230.883 807.01 230.223 807.95C229.583 808.87 228.743 809.78 227.703 810.68C226.883 811.4 226.103 812.1 225.363 812.78C224.623 813.44 224.003 814.14 223.503 814.88H231.393V818H218.223Z" fill="black"/>
<path d="M208.561 1025.16C206.961 1025.16 205.781 1024.73 205.021 1023.87C204.261 1023.01 203.861 1021.78 203.821 1020.18C198.901 1019.52 196.441 1016.27 196.441 1010.43C196.441 1006.89 197.231 1004.33 198.811 1002.75C200.391 1001.17 202.731 1000.38 205.831 1000.38C208.931 1000.38 211.271 1001.17 212.851 1002.75C214.431 1004.33 215.221 1006.89 215.221 1010.43C215.221 1016.49 212.571 1019.76 207.271 1020.24C207.311 1021.04 207.501 1021.58 207.841 1021.86C208.201 1022.14 208.751 1022.28 209.491 1022.28C209.831 1022.28 210.191 1022.25 210.571 1022.19C210.951 1022.13 211.301 1022.05 211.621 1021.95V1024.77C211.281 1024.87 210.831 1024.96 210.271 1025.04C209.711 1025.12 209.141 1025.16 208.561 1025.16ZM205.831 1016.85C207.651 1016.85 208.981 1016.33 209.821 1015.29C210.681 1014.23 211.111 1012.61 211.111 1010.43C211.111 1008.01 210.681 1006.31 209.821 1005.33C208.981 1004.33 207.651 1003.83 205.831 1003.83C204.011 1003.83 202.671 1004.33 201.811 1005.33C200.971 1006.31 200.551 1008.01 200.551 1010.43C200.551 1012.61 200.971 1014.23 201.811 1015.29C202.671 1016.33 204.011 1016.85 205.831 1016.85ZM223.807 1020.3C223.227 1020.3 222.577 1020.26 221.857 1020.18C221.137 1020.1 220.437 1019.99 219.757 1019.85C219.077 1019.71 218.507 1019.55 218.047 1019.37V1015.83C218.867 1016.17 219.717 1016.42 220.597 1016.58C221.497 1016.74 222.367 1016.82 223.207 1016.82C224.627 1016.82 225.677 1016.63 226.357 1016.25C227.057 1015.85 227.407 1015.13 227.407 1014.09C227.407 1013.23 227.097 1012.62 226.477 1012.26C225.877 1011.9 225.007 1011.72 223.867 1011.72H220.837L221.137 1008.75H223.657C224.817 1008.75 225.667 1008.56 226.207 1008.18C226.747 1007.78 227.017 1007.16 227.017 1006.32C227.017 1005.48 226.707 1004.86 226.087 1004.46C225.487 1004.04 224.517 1003.83 223.177 1003.83C222.317 1003.83 221.457 1003.92 220.597 1004.1C219.757 1004.28 219.017 1004.51 218.377 1004.79V1001.34C219.017 1001.06 219.837 1000.83 220.837 1000.65C221.857 1000.47 222.867 1000.38 223.867 1000.38C226.267 1000.38 228.077 1000.88 229.297 1001.88C230.517 1002.88 231.127 1004.17 231.127 1005.75C231.127 1006.69 230.907 1007.58 230.467 1008.42C230.047 1009.24 229.387 1009.84 228.487 1010.22C229.527 1010.54 230.287 1011.08 230.767 1011.84C231.267 1012.58 231.517 1013.47 231.517 1014.51C231.517 1015.83 231.187 1016.92 230.527 1017.78C229.887 1018.64 228.987 1019.28 227.827 1019.7C226.687 1020.1 225.347 1020.3 223.807 1020.3Z" fill="black"/>
<g opacity="0.1" filter="url(#filter4_ddiiif_766_223)">
<circle cx="214" cy="214" r="94" fill="url(#paint5_linear_766_223)"/>
</g>
<g opacity="0.2" filter="url(#filter5_ddiiif_766_223)">
<circle cx="214" cy="214" r="60" fill="url(#paint6_linear_766_223)"/>
</g>
<g filter="url(#filter6_ddiii_766_223)">
<circle cx="214" cy="214" r="38" fill="url(#paint7_linear_766_223)"/>
</g>
<path d="M208.561 228.16C206.961 228.16 205.781 227.73 205.021 226.87C204.261 226.01 203.861 224.78 203.821 223.18C198.901 222.52 196.441 219.27 196.441 213.43C196.441 209.89 197.231 207.33 198.811 205.75C200.391 204.17 202.731 203.38 205.831 203.38C208.931 203.38 211.271 204.17 212.851 205.75C214.431 207.33 215.221 209.89 215.221 213.43C215.221 219.49 212.571 222.76 207.271 223.24C207.311 224.04 207.501 224.58 207.841 224.86C208.201 225.14 208.751 225.28 209.491 225.28C209.831 225.28 210.191 225.25 210.571 225.19C210.951 225.13 211.301 225.05 211.621 224.95V227.77C211.281 227.87 210.831 227.96 210.271 228.04C209.711 228.12 209.141 228.16 208.561 228.16ZM205.831 219.85C207.651 219.85 208.981 219.33 209.821 218.29C210.681 217.23 211.111 215.61 211.111 213.43C211.111 211.01 210.681 209.31 209.821 208.33C208.981 207.33 207.651 206.83 205.831 206.83C204.011 206.83 202.671 207.33 201.811 208.33C200.971 209.31 200.551 211.01 200.551 213.43C200.551 215.61 200.971 217.23 201.811 218.29C202.671 219.33 204.011 219.85 205.831 219.85ZM223.807 223.3C223.227 223.3 222.577 223.26 221.857 223.18C221.137 223.1 220.437 222.99 219.757 222.85C219.077 222.71 218.507 222.55 218.047 222.37V218.83C218.867 219.17 219.717 219.42 220.597 219.58C221.497 219.74 222.367 219.82 223.207 219.82C224.627 219.82 225.677 219.63 226.357 219.25C227.057 218.85 227.407 218.13 227.407 217.09C227.407 216.23 227.097 215.62 226.477 215.26C225.877 214.9 225.007 214.72 223.867 214.72H220.837L221.137 211.75H223.657C224.817 211.75 225.667 211.56 226.207 211.18C226.747 210.78 227.017 210.16 227.017 209.32C227.017 208.48 226.707 207.86 226.087 207.46C225.487 207.04 224.517 206.83 223.177 206.83C222.317 206.83 221.457 206.92 220.597 207.1C219.757 207.28 219.017 207.51 218.377 207.79V204.34C219.017 204.06 219.837 203.83 220.837 203.65C221.857 203.47 222.867 203.38 223.867 203.38C226.267 203.38 228.077 203.88 229.297 204.88C230.517 205.88 231.127 207.17 231.127 208.75C231.127 209.69 230.907 210.58 230.467 211.42C230.047 212.24 229.387 212.84 228.487 213.22C229.527 213.54 230.287 214.08 230.767 214.84C231.267 215.58 231.517 216.47 231.517 217.51C231.517 218.83 231.187 219.92 230.527 220.78C229.887 221.64 228.987 222.28 227.827 222.7C226.687 223.1 225.347 223.3 223.807 223.3Z" fill="white"/>
<defs>
<filter id="filter0_ddiii_766_223" x="56" y="247" width="316" height="316" filterUnits="userSpaceOnUse" color-interpolation-filters="sRGB">
<feFlood flood-opacity="0" result="BackgroundImageFix"/>
<feColorMatrix in="SourceAlpha" type="matrix" values="0 0 0 0 0 0 0 0 0 0 0 0 0 0 0 0 0 0 127 0" result="hardAlpha"/>
<feOffset/>
<feGaussianBlur stdDeviation="60"/>
<feComposite in2="hardAlpha" operator="out"/>
<feColorMatrix type="matrix" values="0 0 0 0 0 0 0 0 0 0.483167 0 0 0 0 0.929167 0 0 0 1 0"/>
<feBlend mode="normal" in2="BackgroundImageFix" result="effect1_dropShadow_766_223"/>
<feColorMatrix in="SourceAlpha" type="matrix" values="0 0 0 0 0 0 0 0 0 0 0 0 0 0 0 0 0 0 127 0" result="hardAlpha"/>
<feOffset/>
<feGaussianBlur stdDeviation="10"/>
<feComposite in2="hardAlpha" operator="out"/>
<feColorMatrix type="matrix" values="0 0 0 0 0.305882 0 0 0 0 0.412549 0 0 0 0 0.972549 0 0 0 0.3 0"/>
<feBlend mode="normal" in2="effect1_dropShadow_766_223" result="effect2_dropShadow_766_223"/>
<feBlend mode="normal" in="SourceGraphic" in2="effect2_dropShadow_766_223" result="shape"/>
<feColorMatrix in="SourceAlpha" type="matrix" values="0 0 0 0 0 0 0 0 0 0 0 0 0 0 0 0 0 0 127 0" result="hardAlpha"/>
<feOffset dy="10"/>
<feGaussianBlur stdDeviation="3"/>
<feComposite in2="hardAlpha" operator="arithmetic" k2="-1" k3="1"/>
<feColorMatrix type="matrix" values="0 0 0 0 1 0 0 0 0 1 0 0 0 0 1 0 0 0 0.25 0"/>
<feBlend mode="normal" in2="shape" result="effect3_innerShadow_766_223"/>
<feColorMatrix in="SourceAlpha" type="matrix" values="0 0 0 0 0 0 0 0 0 0 0 0 0 0 0 0 0 0 127 0" result="hardAlpha"/>
<feOffset dy="-10"/>
<feGaussianBlur stdDeviation="10"/>
<feComposite in2="hardAlpha" operator="arithmetic" k2="-1" k3="1"/>
<feColorMatrix type="matrix" values="0 0 0 0 0.0893229 0 0 0 0 0.298594 0 0 0 0 0.6125 0 0 0 1 0"/>
<feBlend mode="normal" in2="effect3_innerShadow_766_223" result="effect4_innerShadow_766_223"/>
<feColorMatrix in="SourceAlpha" type="matrix" values="0 0 0 0 0 0 0 0 0 0 0 0 0 0 0 0 0 0 127 0" result="hardAlpha"/>
<feOffset dy="5"/>
<feGaussianBlur stdDeviation="1"/>
<feComposite in2="hardAlpha" operator="arithmetic" k2="-1" k3="1"/>
<feColorMatrix type="matrix" values="0 0 0 0 1 0 0 0 0 1 0 0 0 0 1 0 0 0 0.25 0"/>
<feBlend mode="normal" in2="effect4_innerShadow_766_223" result="effect5_innerShadow_766_223"/>
</filter>
<filter id="filter1_ddiii_766_223" x="56" y="449" width="316" height="316" filterUnits="userSpaceOnUse" color-interpolation-filters="sRGB">
<feFlood flood-opacity="0" result="BackgroundImageFix"/>
<feColorMatrix in="SourceAlpha" type="matrix" values="0 0 0 0 0 0 0 0 0 0 0 0 0 0 0 0 0 0 127 0" result="hardAlpha"/>
<feOffset/>
<feGaussianBlur stdDeviation="60"/>
<feComposite in2="hardAlpha" operator="out"/>
<feColorMatrix type="matrix" values="0 0 0 0 0 0 0 0 0 0.483167 0 0 0 0 0.929167 0 0 0 1 0"/>
<feBlend mode="normal" in2="BackgroundImageFix" result="effect1_dropShadow_766_223"/>
<feColorMatrix in="SourceAlpha" type="matrix" values="0 0 0 0 0 0 0 0 0 0 0 0 0 0 0 0 0 0 127 0" result="hardAlpha"/>
<feOffset/>
<feGaussianBlur stdDeviation="10"/>
<feComposite in2="hardAlpha" operator="out"/>
<feColorMatrix type="matrix" values="0 0 0 0 0.305882 0 0 0 0 0.412549 0 0 0 0 0.972549 0 0 0 0.3 0"/>
<feBlend mode="normal" in2="effect1_dropShadow_766_223" result="effect2_dropShadow_766_223"/>
<feBlend mode="normal" in="SourceGraphic" in2="effect2_dropShadow_766_223" result="shape"/>
<feColorMatrix in="SourceAlpha" type="matrix" values="0 0 0 0 0 0 0 0 0 0 0 0 0 0 0 0 0 0 127 0" result="hardAlpha"/>
<feOffset dy="10"/>
<feGaussianBlur stdDeviation="3"/>
<feComposite in2="hardAlpha" operator="arithmetic" k2="-1" k3="1"/>
<feColorMatrix type="matrix" values="0 0 0 0 1 0 0 0 0 1 0 0 0 0 1 0 0 0 0.25 0"/>
<feBlend mode="normal" in2="shape" result="effect3_innerShadow_766_223"/>
<feColorMatrix in="SourceAlpha" type="matrix" values="0 0 0 0 0 0 0 0 0 0 0 0 0 0 0 0 0 0 127 0" result="hardAlpha"/>
<feOffset dy="-10"/>
<feGaussianBlur stdDeviation="10"/>
<feComposite in2="hardAlpha" operator="arithmetic" k2="-1" k3="1"/>
<feColorMatrix type="matrix" values="0 0 0 0 0.0893229 0 0 0 0 0.298594 0 0 0 0 0.6125 0 0 0 1 0"/>
<feBlend mode="normal" in2="effect3_innerShadow_766_223" result="effect4_innerShadow_766_223"/>
<feColorMatrix in="SourceAlpha" type="matrix" values="0 0 0 0 0 0 0 0 0 0 0 0 0 0 0 0 0 0 127 0" result="hardAlpha"/>
<feOffset dy="5"/>
<feGaussianBlur stdDeviation="1"/>
<feComposite in2="hardAlpha" operator="arithmetic" k2="-1" k3="1"/>
<feColorMatrix type="matrix" values="0 0 0 0 1 0 0 0 0 1 0 0 0 0 1 0 0 0 0.25 0"/>
<feBlend mode="normal" in2="effect4_innerShadow_766_223" result="effect5_innerShadow_766_223"/>
</filter>
<filter id="filter2_ddiii_766_223" x="56" y="651" width="316" height="316" filterUnits="userSpaceOnUse" color-interpolation-filters="sRGB">
<feFlood flood-opacity="0" result="BackgroundImageFix"/>
<feColorMatrix in="SourceAlpha" type="matrix" values="0 0 0 0 0 0 0 0 0 0 0 0 0 0 0 0 0 0 127 0" result="hardAlpha"/>
<feOffset/>
<feGaussianBlur stdDeviation="60"/>
<feComposite in2="hardAlpha" operator="out"/>
<feColorMatrix type="matrix" values="0 0 0 0 0 0 0 0 0 0.483167 0 0 0 0 0.929167 0 0 0 1 0"/>
<feBlend mode="normal" in2="BackgroundImageFix" result="effect1_dropShadow_766_223"/>
<feColorMatrix in="SourceAlpha" type="matrix" values="0 0 0 0 0 0 0 0 0 0 0 0 0 0 0 0 0 0 127 0" result="hardAlpha"/>
<feOffset/>
<feGaussianBlur stdDeviation="10"/>
<feComposite in2="hardAlpha" operator="out"/>
<feColorMatrix type="matrix" values="0 0 0 0 0.305882 0 0 0 0 0.412549 0 0 0 0 0.972549 0 0 0 0.3 0"/>
<feBlend mode="normal" in2="effect1_dropShadow_766_223" result="effect2_dropShadow_766_223"/>
<feBlend mode="normal" in="SourceGraphic" in2="effect2_dropShadow_766_223" result="shape"/>
<feColorMatrix in="SourceAlpha" type="matrix" values="0 0 0 0 0 0 0 0 0 0 0 0 0 0 0 0 0 0 127 0" result="hardAlpha"/>
<feOffset dy="10"/>
<feGaussianBlur stdDeviation="3"/>
<feComposite in2="hardAlpha" operator="arithmetic" k2="-1" k3="1"/>
<feColorMatrix type="matrix" values="0 0 0 0 1 0 0 0 0 1 0 0 0 0 1 0 0 0 0.25 0"/>
<feBlend mode="normal" in2="shape" result="effect3_innerShadow_766_223"/>
<feColorMatrix in="SourceAlpha" type="matrix" values="0 0 0 0 0 0 0 0 0 0 0 0 0 0 0 0 0 0 127 0" result="hardAlpha"/>
<feOffset dy="-10"/>
<feGaussianBlur stdDeviation="10"/>
<feComposite in2="hardAlpha" operator="arithmetic" k2="-1" k3="1"/>
<feColorMatrix type="matrix" values="0 0 0 0 0.0893229 0 0 0 0 0.298594 0 0 0 0 0.6125 0 0 0 1 0"/>
<feBlend mode="normal" in2="effect3_innerShadow_766_223" result="effect4_innerShadow_766_223"/>
<feColorMatrix in="SourceAlpha" type="matrix" values="0 0 0 0 0 0 0 0 0 0 0 0 0 0 0 0 0 0 127 0" result="hardAlpha"/>
<feOffset dy="5"/>
<feGaussianBlur stdDeviation="1"/>
<feComposite in2="hardAlpha" operator="arithmetic" k2="-1" k3="1"/>
<feColorMatrix type="matrix" values="0 0 0 0 1 0 0 0 0 1 0 0 0 0 1 0 0 0 0.25 0"/>
<feBlend mode="normal" in2="effect4_innerShadow_766_223" result="effect5_innerShadow_766_223"/>
</filter>
<filter id="filter3_ddiii_766_223" x="56" y="853" width="316" height="316" filterUnits="userSpaceOnUse" color-interpolation-filters="sRGB">
<feFlood flood-opacity="0" result="BackgroundImageFix"/>
<feColorMatrix in="SourceAlpha" type="matrix" values="0 0 0 0 0 0 0 0 0 0 0 0 0 0 0 0 0 0 127 0" result="hardAlpha"/>
<feOffset/>
<feGaussianBlur stdDeviation="60"/>
<feComposite in2="hardAlpha" operator="out"/>
<feColorMatrix type="matrix" values="0 0 0 0 0 0 0 0 0 0.483167 0 0 0 0 0.929167 0 0 0 1 0"/>
<feBlend mode="normal" in2="BackgroundImageFix" result="effect1_dropShadow_766_223"/>
<feColorMatrix in="SourceAlpha" type="matrix" values="0 0 0 0 0 0 0 0 0 0 0 0 0 0 0 0 0 0 127 0" result="hardAlpha"/>
<feOffset/>
<feGaussianBlur stdDeviation="10"/>
<feComposite in2="hardAlpha" operator="out"/>
<feColorMatrix type="matrix" values="0 0 0 0 0.305882 0 0 0 0 0.412549 0 0 0 0 0.972549 0 0 0 0.3 0"/>
<feBlend mode="normal" in2="effect1_dropShadow_766_223" result="effect2_dropShadow_766_223"/>
<feBlend mode="normal" in="SourceGraphic" in2="effect2_dropShadow_766_223" result="shape"/>
<feColorMatrix in="SourceAlpha" type="matrix" values="0 0 0 0 0 0 0 0 0 0 0 0 0 0 0 0 0 0 127 0" result="hardAlpha"/>
<feOffset dy="10"/>
<feGaussianBlur stdDeviation="3"/>
<feComposite in2="hardAlpha" operator="arithmetic" k2="-1" k3="1"/>
<feColorMatrix type="matrix" values="0 0 0 0 1 0 0 0 0 1 0 0 0 0 1 0 0 0 0.25 0"/>
<feBlend mode="normal" in2="shape" result="effect3_innerShadow_766_223"/>
<feColorMatrix in="SourceAlpha" type="matrix" values="0 0 0 0 0 0 0 0 0 0 0 0 0 0 0 0 0 0 127 0" result="hardAlpha"/>
<feOffset dy="-10"/>
<feGaussianBlur stdDeviation="10"/>
<feComposite in2="hardAlpha" operator="arithmetic" k2="-1" k3="1"/>
<feColorMatrix type="matrix" values="0 0 0 0 0.0893229 0 0 0 0 0.298594 0 0 0 0 0.6125 0 0 0 1 0"/>
<feBlend mode="normal" in2="effect3_innerShadow_766_223" result="effect4_innerShadow_766_223"/>
<feColorMatrix in="SourceAlpha" type="matrix" values="0 0 0 0 0 0 0 0 0 0 0 0 0 0 0 0 0 0 127 0" result="hardAlpha"/>
<feOffset dy="5"/>
<feGaussianBlur stdDeviation="1"/>
<feComposite in2="hardAlpha" operator="arithmetic" k2="-1" k3="1"/>
<feColorMatrix type="matrix" values="0 0 0 0 1 0 0 0 0 1 0 0 0 0 1 0 0 0 0.25 0"/>
<feBlend mode="normal" in2="effect4_innerShadow_766_223" result="effect5_innerShadow_766_223"/>
</filter>
<filter id="filter4_ddiiif_766_223" x="0" y="0" width="428" height="428" filterUnits="userSpaceOnUse" color-interpolation-filters="sRGB">
<feFlood flood-opacity="0" result="BackgroundImageFix"/>
<feColorMatrix in="SourceAlpha" type="matrix" values="0 0 0 0 0 0 0 0 0 0 0 0 0 0 0 0 0 0 127 0" result="hardAlpha"/>
<feOffset/>
<feGaussianBlur stdDeviation="60"/>
<feComposite in2="hardAlpha" operator="out"/>
<feColorMatrix type="matrix" values="0 0 0 0 0.855294 0 0 0 0 0.231373 0 0 0 0 0.956863 0 0 0 1 0"/>
<feBlend mode="normal" in2="BackgroundImageFix" result="effect1_dropShadow_766_223"/>
<feColorMatrix in="SourceAlpha" type="matrix" values="0 0 0 0 0 0 0 0 0 0 0 0 0 0 0 0 0 0 127 0" result="hardAlpha"/>
<feOffset/>
<feGaussianBlur stdDeviation="10"/>
<feComposite in2="hardAlpha" operator="out"/>
<feColorMatrix type="matrix" values="0 0 0 0 0.638569 0 0 0 0 0.231597 0 0 0 0 0.958333 0 0 0 0.3 0"/>
<feBlend mode="normal" in2="effect1_dropShadow_766_223" result="effect2_dropShadow_766_223"/>
<feBlend mode="normal" in="SourceGraphic" in2="effect2_dropShadow_766_223" result="shape"/>
<feColorMatrix in="SourceAlpha" type="matrix" values="0 0 0 0 0 0 0 0 0 0 0 0 0 0 0 0 0 0 127 0" result="hardAlpha"/>
<feOffset dy="10"/>
<feGaussianBlur stdDeviation="3"/>
<feComposite in2="hardAlpha" operator="arithmetic" k2="-1" k3="1"/>
<feColorMatrix type="matrix" values="0 0 0 0 1 0 0 0 0 1 0 0 0 0 1 0 0 0 0.25 0"/>
<feBlend mode="normal" in2="shape" result="effect3_innerShadow_766_223"/>
<feColorMatrix in="SourceAlpha" type="matrix" values="0 0 0 0 0 0 0 0 0 0 0 0 0 0 0 0 0 0 127 0" result="hardAlpha"/>
<feOffset dy="-10"/>
<feGaussianBlur stdDeviation="10"/>
<feComposite in2="hardAlpha" operator="arithmetic" k2="-1" k3="1"/>
<feColorMatrix type="matrix" values="0 0 0 0 0.724706 0 0 0 0 0.231373 0 0 0 0 0.956863 0 0 0 0.4 0"/>
<feBlend mode="normal" in2="effect3_innerShadow_766_223" result="effect4_innerShadow_766_223"/>
<feColorMatrix in="SourceAlpha" type="matrix" values="0 0 0 0 0 0 0 0 0 0 0 0 0 0 0 0 0 0 127 0" result="hardAlpha"/>
<feOffset dy="5"/>
<feGaussianBlur stdDeviation="1"/>
<feComposite in2="hardAlpha" operator="arithmetic" k2="-1" k3="1"/>
<feColorMatrix type="matrix" values="0 0 0 0 1 0 0 0 0 1 0 0 0 0 1 0 0 0 0.25 0"/>
<feBlend mode="normal" in2="effect4_innerShadow_766_223" result="effect5_innerShadow_766_223"/>
<feGaussianBlur stdDeviation="5" result="effect6_foregroundBlur_766_223"/>
</filter>
<filter id="filter5_ddiiif_766_223" x="34" y="34" width="360" height="360" filterUnits="userSpaceOnUse" color-interpolation-filters="sRGB">
<feFlood flood-opacity="0" result="BackgroundImageFix"/>
<feColorMatrix in="SourceAlpha" type="matrix" values="0 0 0 0 0 0 0 0 0 0 0 0 0 0 0 0 0 0 127 0" result="hardAlpha"/>
<feOffset/>
<feGaussianBlur stdDeviation="60"/>
<feComposite in2="hardAlpha" operator="out"/>
<feColorMatrix type="matrix" values="0 0 0 0 0.651667 0 0 0 0 0.208333 0 0 0 0 1 0 0 0 1 0"/>
<feBlend mode="normal" in2="BackgroundImageFix" result="effect1_dropShadow_766_223"/>
<feColorMatrix in="SourceAlpha" type="matrix" values="0 0 0 0 0 0 0 0 0 0 0 0 0 0 0 0 0 0 127 0" result="hardAlpha"/>
<feOffset/>
<feGaussianBlur stdDeviation="10"/>
<feComposite in2="hardAlpha" operator="out"/>
<feColorMatrix type="matrix" values="0 0 0 0 0.935667 0 0 0 0 0.195833 0 0 0 0 1 0 0 0 0.3 0"/>
<feBlend mode="normal" in2="effect1_dropShadow_766_223" result="effect2_dropShadow_766_223"/>
<feBlend mode="normal" in="SourceGraphic" in2="effect2_dropShadow_766_223" result="shape"/>
<feColorMatrix in="SourceAlpha" type="matrix" values="0 0 0 0 0 0 0 0 0 0 0 0 0 0 0 0 0 0 127 0" result="hardAlpha"/>
<feOffset dy="10"/>
<feGaussianBlur stdDeviation="3"/>
<feComposite in2="hardAlpha" operator="arithmetic" k2="-1" k3="1"/>
<feColorMatrix type="matrix" values="0 0 0 0 1 0 0 0 0 1 0 0 0 0 1 0 0 0 0.25 0"/>
<feBlend mode="normal" in2="shape" result="effect3_innerShadow_766_223"/>
<feColorMatrix in="SourceAlpha" type="matrix" values="0 0 0 0 0 0 0 0 0 0 0 0 0 0 0 0 0 0 127 0" result="hardAlpha"/>
<feOffset dy="-10"/>
<feGaussianBlur stdDeviation="10"/>
<feComposite in2="hardAlpha" operator="arithmetic" k2="-1" k3="1"/>
<feColorMatrix type="matrix" values="0 0 0 0 0.757333 0 0 0 0 0.241667 0 0 0 0 1 0 0 0 1 0"/>
<feBlend mode="normal" in2="effect3_innerShadow_766_223" result="effect4_innerShadow_766_223"/>
<feColorMatrix in="SourceAlpha" type="matrix" values="0 0 0 0 0 0 0 0 0 0 0 0 0 0 0 0 0 0 127 0" result="hardAlpha"/>
<feOffset dy="5"/>
<feGaussianBlur stdDeviation="1"/>
<feComposite in2="hardAlpha" operator="arithmetic" k2="-1" k3="1"/>
<feColorMatrix type="matrix" values="0 0 0 0 1 0 0 0 0 1 0 0 0 0 1 0 0 0 0.25 0"/>
<feBlend mode="normal" in2="effect4_innerShadow_766_223" result="effect5_innerShadow_766_223"/>
<feGaussianBlur stdDeviation="2.5" result="effect6_foregroundBlur_766_223"/>
</filter>
<filter id="filter6_ddiii_766_223" x="56" y="56" width="316" height="316" filterUnits="userSpaceOnUse" color-interpolation-filters="sRGB">
<feFlood flood-opacity="0" result="BackgroundImageFix"/>
<feColorMatrix in="SourceAlpha" type="matrix" values="0 0 0 0 0 0 0 0 0 0 0 0 0 0 0 0 0 0 127 0" result="hardAlpha"/>
<feOffset/>
<feGaussianBlur stdDeviation="60"/>
<feComposite in2="hardAlpha" operator="out"/>
<feColorMatrix type="matrix" values="0 0 0 0 0.799083 0 0 0 0 0 0 0 0 0 0.929167 0 0 0 1 0"/>
<feBlend mode="normal" in2="BackgroundImageFix" result="effect1_dropShadow_766_223"/>
<feColorMatrix in="SourceAlpha" type="matrix" values="0 0 0 0 0 0 0 0 0 0 0 0 0 0 0 0 0 0 127 0" result="hardAlpha"/>
<feOffset/>
<feGaussianBlur stdDeviation="10"/>
<feComposite in2="hardAlpha" operator="out"/>
<feColorMatrix type="matrix" values="0 0 0 0 0.799216 0 0 0 0 0.305882 0 0 0 0 0.972549 0 0 0 0.3 0"/>
<feBlend mode="normal" in2="effect1_dropShadow_766_223" result="effect2_dropShadow_766_223"/>
<feBlend mode="normal" in="SourceGraphic" in2="effect2_dropShadow_766_223" result="shape"/>
<feColorMatrix in="SourceAlpha" type="matrix" values="0 0 0 0 0 0 0 0 0 0 0 0 0 0 0 0 0 0 127 0" result="hardAlpha"/>
<feOffset dy="10"/>
<feGaussianBlur stdDeviation="3"/>
<feComposite in2="hardAlpha" operator="arithmetic" k2="-1" k3="1"/>
<feColorMatrix type="matrix" values="0 0 0 0 1 0 0 0 0 1 0 0 0 0 1 0 0 0 0.25 0"/>
<feBlend mode="normal" in2="shape" result="effect3_innerShadow_766_223"/>
<feColorMatrix in="SourceAlpha" type="matrix" values="0 0 0 0 0 0 0 0 0 0 0 0 0 0 0 0 0 0 127 0" result="hardAlpha"/>
<feOffset dy="-10"/>
<feGaussianBlur stdDeviation="10"/>
<feComposite in2="hardAlpha" operator="arithmetic" k2="-1" k3="1"/>
<feColorMatrix type="matrix" values="0 0 0 0 0.539255 0 0 0 0 0.0893229 0 0 0 0 0.6125 0 0 0 1 0"/>
<feBlend mode="normal" in2="effect3_innerShadow_766_223" result="effect4_innerShadow_766_223"/>
<feColorMatrix in="SourceAlpha" type="matrix" values="0 0 0 0 0 0 0 0 0 0 0 0 0 0 0 0 0 0 127 0" result="hardAlpha"/>
<feOffset dy="5"/>
<feGaussianBlur stdDeviation="1"/>
<feComposite in2="hardAlpha" operator="arithmetic" k2="-1" k3="1"/>
<feColorMatrix type="matrix" values="0 0 0 0 1 0 0 0 0 1 0 0 0 0 1 0 0 0 0.25 0"/>
<feBlend mode="normal" in2="effect4_innerShadow_766_223" result="effect5_innerShadow_766_223"/>
</filter>
<linearGradient id="paint0_linear_766_223" x1="211.999" y1="424.774" x2="211.99" y2="1066.36" gradientUnits="userSpaceOnUse">
<stop stop-color="#4798F8"/>
<stop offset="1" stop-color="#75D9FF" stop-opacity="0.1"/>
</linearGradient>
<linearGradient id="paint1_linear_766_223" x1="214" y1="367" x2="214" y2="443" gradientUnits="userSpaceOnUse">
<stop stop-color="#95E8FE"/>
<stop offset="1" stop-color="#029BF1"/>
</linearGradient>
<linearGradient id="paint2_linear_766_223" x1="214" y1="569" x2="214" y2="645" gradientUnits="userSpaceOnUse">
<stop stop-color="#95E8FE"/>
<stop offset="1" stop-color="#029BF1"/>
</linearGradient>
<linearGradient id="paint3_linear_766_223" x1="214" y1="771" x2="214" y2="847" gradientUnits="userSpaceOnUse">
<stop stop-color="#95E8FE"/>
<stop offset="1" stop-color="#029BF1"/>
</linearGradient>
<linearGradient id="paint4_linear_766_223" x1="214" y1="973" x2="214" y2="1049" gradientUnits="userSpaceOnUse">
<stop stop-color="#95E8FE"/>
<stop offset="1" stop-color="#029BF1"/>
</linearGradient>
<linearGradient id="paint5_linear_766_223" x1="214" y1="120" x2="213" y2="284" gradientUnits="userSpaceOnUse">
<stop stop-color="#E290FF"/>
<stop offset="1" stop-color="#5D02F1"/>
</linearGradient>
<linearGradient id="paint6_linear_766_223" x1="214" y1="154" x2="213.362" y2="258.681" gradientUnits="userSpaceOnUse">
<stop stop-color="#DC90FF"/>
<stop offset="1" stop-color="#8802F1"/>
</linearGradient>
<linearGradient id="paint7_linear_766_223" x1="245.294" y1="178.012" x2="223.716" y2="262.406" gradientUnits="userSpaceOnUse">
<stop stop-color="#D96DFF"/>
<stop offset="1" stop-color="#AD00FF"/>
</linearGradient>
</defs>
</svg>
