<svg width="1440" height="844" viewBox="0 0 1440 844" fill="none" xmlns="http://www.w3.org/2000/svg">
<g filter="url(#filter0_f_925_461)">
<path d="M64.0801 592C64.0801 592 291.467 252 717.435 252C1143.4 252 1376.92 592 1376.92 592" stroke="url(#paint0_linear_925_461)" stroke-width="4"/>
</g>
<g filter="url(#filter1_f_925_461)">
<path d="M64.0801 592C64.0801 592 291.467 252 717.435 252C1143.4 252 1376.92 592 1376.92 592" stroke="url(#paint1_linear_925_461)" stroke-width="4"/>
</g>
<g filter="url(#filter2_f_925_461)">
<path d="M64.0801 592C64.0801 592 291.467 252 717.435 252C1143.4 252 1376.92 592 1376.92 592" stroke="url(#paint2_linear_925_461)" stroke-width="4"/>
</g>
<g filter="url(#filter3_f_925_461)">
<path d="M64.0801 592C64.0801 592 291.467 252 717.435 252C1143.4 252 1376.92 592 1376.92 592" stroke="url(#paint3_linear_925_461)" stroke-width="4"/>
</g>
<g filter="url(#filter4_f_925_461)">
<path d="M64.0801 592C64.0801 592 291.467 252 717.435 252C1143.4 252 1376.92 592 1376.92 592" stroke="url(#paint4_linear_925_461)" stroke-width="4"/>
</g>
<g filter="url(#filter5_f_925_461)">
<path d="M64.0801 592C64.0801 592 291.467 252 717.435 252C1143.4 252 1376.92 592 1376.92 592" stroke="url(#paint5_linear_925_461)" stroke-width="4"/>
</g>
<path d="M64.0801 592C64.0801 592 291.467 252 717.435 252C1143.4 252 1376.92 592 1376.92 592" stroke="url(#paint6_linear_925_461)" stroke-width="4"/>
<defs>
<filter id="filter0_f_925_461" x="-187.578" y="0" width="1816.14" height="843.13" filterUnits="userSpaceOnUse" color-interpolation-filters="sRGB">
<feFlood flood-opacity="0" result="BackgroundImageFix"/>
<feBlend mode="normal" in="SourceGraphic" in2="BackgroundImageFix" result="shape"/>
<feGaussianBlur stdDeviation="125" result="effect1_foregroundBlur_925_461"/>
</filter>
<filter id="filter1_f_925_461" x="-187.578" y="0" width="1816.14" height="843.13" filterUnits="userSpaceOnUse" color-interpolation-filters="sRGB">
<feFlood flood-opacity="0" result="BackgroundImageFix"/>
<feBlend mode="normal" in="SourceGraphic" in2="BackgroundImageFix" result="shape"/>
<feGaussianBlur stdDeviation="125" result="effect1_foregroundBlur_925_461"/>
</filter>
<filter id="filter2_f_925_461" x="12.4219" y="200" width="1416.14" height="443.13" filterUnits="userSpaceOnUse" color-interpolation-filters="sRGB">
<feFlood flood-opacity="0" result="BackgroundImageFix"/>
<feBlend mode="normal" in="SourceGraphic" in2="BackgroundImageFix" result="shape"/>
<feGaussianBlur stdDeviation="25" result="effect1_foregroundBlur_925_461"/>
</filter>
<filter id="filter3_f_925_461" x="-37.5781" y="150" width="1516.14" height="543.13" filterUnits="userSpaceOnUse" color-interpolation-filters="sRGB">
<feFlood flood-opacity="0" result="BackgroundImageFix"/>
<feBlend mode="normal" in="SourceGraphic" in2="BackgroundImageFix" result="shape"/>
<feGaussianBlur stdDeviation="50" result="effect1_foregroundBlur_925_461"/>
</filter>
<filter id="filter4_f_925_461" x="-137.578" y="50" width="1716.14" height="743.13" filterUnits="userSpaceOnUse" color-interpolation-filters="sRGB">
<feFlood flood-opacity="0" result="BackgroundImageFix"/>
<feBlend mode="normal" in="SourceGraphic" in2="BackgroundImageFix" result="shape"/>
<feGaussianBlur stdDeviation="100" result="effect1_foregroundBlur_925_461"/>
</filter>
<filter id="filter5_f_925_461" x="-37.5781" y="150" width="1516.14" height="543.13" filterUnits="userSpaceOnUse" color-interpolation-filters="sRGB">
<feFlood flood-opacity="0" result="BackgroundImageFix"/>
<feBlend mode="normal" in="SourceGraphic" in2="BackgroundImageFix" result="shape"/>
<feGaussianBlur stdDeviation="50" result="effect1_foregroundBlur_925_461"/>
</filter>
<linearGradient id="paint0_linear_925_461" x1="720.499" y1="252" x2="728.625" y2="580.836" gradientUnits="userSpaceOnUse">
<stop stop-color="#89E3FE"/>
<stop offset="1" stop-color="#0057FF" stop-opacity="0"/>
</linearGradient>
<linearGradient id="paint1_linear_925_461" x1="720.499" y1="252" x2="728.625" y2="580.836" gradientUnits="userSpaceOnUse">
<stop stop-color="#89E3FE"/>
<stop offset="1" stop-color="#0057FF" stop-opacity="0"/>
</linearGradient>
<linearGradient id="paint2_linear_925_461" x1="720.499" y1="252" x2="728.625" y2="580.836" gradientUnits="userSpaceOnUse">
<stop stop-color="#89E3FE"/>
<stop offset="1" stop-color="#0057FF" stop-opacity="0"/>
</linearGradient>
<linearGradient id="paint3_linear_925_461" x1="720.499" y1="252" x2="728.625" y2="580.836" gradientUnits="userSpaceOnUse">
<stop stop-color="#89E3FE"/>
<stop offset="1" stop-color="#0057FF" stop-opacity="0"/>
</linearGradient>
<linearGradient id="paint4_linear_925_461" x1="720.499" y1="252" x2="728.625" y2="580.836" gradientUnits="userSpaceOnUse">
<stop stop-color="#89E3FE"/>
<stop offset="1" stop-color="#0057FF" stop-opacity="0"/>
</linearGradient>
<linearGradient id="paint5_linear_925_461" x1="720.499" y1="252" x2="728.625" y2="580.836" gradientUnits="userSpaceOnUse">
<stop stop-color="#89E3FE"/>
<stop offset="1" stop-color="#0057FF" stop-opacity="0"/>
</linearGradient>
<linearGradient id="paint6_linear_925_461" x1="720.499" y1="252" x2="728.625" y2="580.836" gradientUnits="userSpaceOnUse">
<stop stop-color="#89E3FE"/>
<stop offset="1" stop-color="#0057FF" stop-opacity="0"/>
</linearGradient>
</defs>
</svg>
