<svg width="185" height="29" viewBox="0 0 185 29" fill="none" xmlns="http://www.w3.org/2000/svg">
<path d="M65.3404 3.22058V6.17542H60.21V21.8281H56.4885V6.17542H51.3848V3.22058H65.3404Z" fill="white"/>
<path d="M70.6415 7.81058C71.5449 7.27931 72.5279 7.01367 73.6439 7.01367V10.9717H72.5545C69.8444 10.9717 68.4893 12.2467 68.4893 14.7437V21.7565H64.7695V7.22618H68.4893V10.0154C69.0207 9.08564 69.7381 8.34186 70.6415 7.81058Z" fill="white"/>
<path d="M89.1703 7.22815V21.7851H85.4553V18.8365C85.0572 19.8193 84.4469 20.5897 83.5447 21.1475C82.669 21.7054 81.634 21.971 80.493 21.971C78.8212 21.971 77.4679 21.4132 76.486 20.3241C75.4777 19.2084 75 17.6677 75 15.702V7.22815H78.662V15.277C78.662 16.4458 78.9539 17.3224 79.5642 17.9599C80.148 18.5974 80.9706 18.9162 81.979 18.9162C83.0405 18.9162 83.8896 18.5709 84.5265 17.8802C85.1634 17.1895 85.4818 16.2067 85.4818 14.9316V7.22815H89.1703Z" fill="white"/>
<path d="M100.33 8.36862C101.394 9.27192 102.059 10.4409 102.325 11.9287H98.84C98.707 11.2379 98.3878 10.6534 97.8824 10.2549C97.4036 9.82984 96.7386 9.6173 95.9672 9.6173C95.3288 9.6173 94.85 9.7767 94.5042 10.0689C94.1584 10.3612 93.9722 10.7597 93.9722 11.2645C93.9722 11.663 94.1052 11.9818 94.3978 12.2475C94.6904 12.5132 95.0362 12.6726 95.4618 12.832C95.8874 12.9648 96.4992 13.1508 97.2706 13.3368C98.3878 13.5759 99.2656 13.8415 99.9572 14.1072C100.649 14.3729 101.234 14.798 101.739 15.3825C102.245 15.967 102.484 16.764 102.484 17.7736C102.484 19.0222 102.005 20.0318 101.021 20.8023C100.037 21.5727 98.7336 21.9712 97.0844 21.9712C95.1958 21.9712 93.6796 21.5462 92.5358 20.696C91.3919 19.8458 90.7003 18.6237 90.4609 17.0562H94.0254C94.1052 17.7736 94.4244 18.3315 94.983 18.7566C95.515 19.1551 96.2332 19.3676 97.111 19.3676C97.7494 19.3676 98.2282 19.2082 98.5474 18.916C98.8666 18.5971 99.0528 18.1986 99.0528 17.7204C99.0528 17.2953 98.9198 16.95 98.6272 16.6843C98.3346 16.4186 97.9888 16.2061 97.5366 16.0732C97.111 15.9404 96.4992 15.7544 95.7012 15.5684C94.6106 15.3293 93.7328 15.0637 93.0678 14.8245C92.4028 14.5854 91.8175 14.1604 91.3387 13.6024C90.8599 13.0445 90.6205 12.2741 90.6205 11.2911C90.6205 10.0158 91.0993 9.00624 92.057 8.20921C93.0146 7.41219 94.3446 7.01367 96.047 7.01367C97.8558 7.04024 99.2656 7.49189 100.33 8.36862Z" fill="white"/>
<path d="M111.859 18.6389V21.828H109.897C108.279 21.828 107.032 21.4293 106.157 20.6321C105.282 19.8348 104.857 18.5325 104.857 16.6988V10.3737H102.842V7.26426H104.857V3.6499H108.571V7.23768H111.833V10.3737H108.571V16.7519C108.571 17.4429 108.703 17.9479 108.995 18.2136C109.287 18.506 109.738 18.6389 110.401 18.6389H111.859Z" fill="white"/>
<path d="M128.08 19.3391C127.604 20.1368 126.916 20.7749 125.99 21.2535C125.063 21.7321 123.952 21.9713 122.602 21.9713C121.305 21.9713 120.115 21.7586 119.082 21.3066C118.05 20.8547 117.23 20.2165 116.621 19.3657C116.013 18.5149 115.642 17.5312 115.563 16.4145H119.506C119.585 17.1589 119.903 17.7971 120.406 18.3022C120.908 18.8074 121.597 19.0467 122.47 19.0467C123.237 19.0467 123.82 18.834 124.243 18.4352C124.64 18.0363 124.852 17.478 124.852 16.8399C124.852 16.255 124.693 15.7764 124.349 15.4041C124.031 15.0319 123.608 14.7129 123.079 14.5002C122.576 14.2609 121.888 14.0216 120.988 13.7025C119.823 13.3037 118.897 12.9315 118.156 12.5592C117.415 12.187 116.807 11.6287 116.277 10.9108C115.774 10.1929 115.51 9.26235 115.51 8.09249C115.51 6.49722 116.092 5.24759 117.23 4.31702C118.368 3.38644 119.876 2.93445 121.782 2.93445C123.74 2.93445 125.302 3.41303 126.439 4.3436C127.604 5.30077 128.266 6.5504 128.424 8.11908H124.455C124.349 7.45438 124.058 6.89604 123.608 6.47063C123.158 6.04523 122.523 5.83252 121.755 5.83252C121.067 5.83252 120.538 6.01864 120.115 6.36428C119.691 6.73651 119.479 7.24168 119.479 7.93296C119.479 8.49131 119.638 8.91671 119.956 9.28894C120.273 9.66117 120.697 9.95364 121.2 10.1663C121.702 10.4056 122.364 10.6449 123.237 10.9374C124.428 11.3628 125.381 11.7616 126.122 12.1338C126.863 12.5061 127.498 13.0644 128.027 13.7823C128.557 14.5267 128.821 15.4839 128.821 16.6804C128.795 17.6641 128.557 18.5415 128.08 19.3391Z" fill="white"/>
<path d="M151.509 7.22815L147.606 21.8279H143.517L140.384 11.1978L137.171 21.8279H133.056L129.18 7.22815H132.897L135.26 18.4976L138.499 7.22815H142.402L145.668 18.4976L148.057 7.22815H151.509Z" fill="white"/>
<path d="M160.944 7.93268C161.82 8.51541 162.43 9.28355 162.802 10.2636V7.2705H166.464V21.7857H162.802V18.7396C162.43 19.7196 161.82 20.4878 160.944 21.097C160.068 21.6797 159.007 21.9711 157.786 21.9711C156.565 21.9711 155.45 21.6797 154.468 21.0705C153.486 20.4878 152.717 19.6137 152.186 18.5012C151.629 17.3887 151.363 16.0379 151.363 14.5281C151.363 13.0183 151.629 11.6939 152.186 10.555C152.743 9.44247 153.513 8.56838 154.468 7.98566C155.45 7.40293 156.538 7.08508 157.786 7.08508C159.007 7.08508 160.068 7.37645 160.944 7.93268ZM156.167 11.429C155.477 12.1707 155.105 13.2037 155.105 14.5281C155.105 15.8525 155.45 16.859 156.167 17.6006C156.883 18.3423 157.786 18.7131 158.953 18.7131C160.068 18.7131 160.997 18.3423 161.713 17.5741C162.43 16.806 162.802 15.7995 162.802 14.5281C162.802 13.2302 162.43 12.1972 161.713 11.4555C160.997 10.6874 160.068 10.3166 158.953 10.3166C157.786 10.2901 156.857 10.6874 156.167 11.429Z" fill="white"/>
<path d="M180.896 7.96022C181.878 8.54365 182.648 9.41879 183.178 10.5326C183.736 11.6464 184.001 12.9989 184.001 14.5105C184.001 16.0221 183.736 17.3481 183.178 18.4884C182.621 19.6022 181.851 20.4774 180.896 21.0608C179.941 21.6442 178.826 21.9625 177.579 21.9625C176.331 21.9625 175.296 21.6708 174.447 21.0873C173.571 20.5039 172.961 19.7083 172.589 18.7271V28.6984H168.9V7.27072H172.616V10.2939C172.987 9.31271 173.598 8.54365 174.474 7.96022C175.349 7.3768 176.384 7.08508 177.605 7.08508C178.826 7.08508 179.914 7.3768 180.896 7.96022ZM173.677 11.4343C172.961 12.2033 172.589 13.2111 172.589 14.5105C172.589 15.7835 172.961 16.8177 173.677 17.5603C174.394 18.3293 175.323 18.7006 176.437 18.7006C177.605 18.7006 178.508 18.3293 179.224 17.5868C179.914 16.8442 180.286 15.81 180.286 14.5105C180.286 13.2111 179.941 12.1768 179.224 11.4077C178.534 10.6652 177.605 10.2939 176.437 10.2939C175.323 10.2939 174.394 10.6917 173.677 11.4343Z" fill="white"/>
<path d="M15.9671 18.674C15.1961 19.3115 14.3984 19.71 13.388 19.9225C12.9626 20.0287 12.5106 20.0819 12.032 20.0819C8.92109 20.0819 6.18245 17.638 5.91656 14.6364C5.67726 12.9895 6.20904 11.2628 7.37894 9.90812C8.22979 8.92527 9.31993 8.26119 10.4632 7.94243V10.0941L18.2804 5.02047L10.4632 0V2.01881C6.20904 2.55008 2.64614 5.25954 0.944454 9.35029C-0.94335 13.9457 0.0404351 18.9396 3.52357 22.446C5.81021 24.7304 8.81474 25.9789 12.032 25.9789C15.1163 25.9789 19.1844 24.5445 21.0456 21.8085C22.4548 19.7365 25.353 13.9457 26.3368 11.9535L15.9671 18.674Z" fill="url(#paint0_linear_1149_2441)"/>
<path d="M38.2738 5.46517C35.9894 3.18073 32.9879 1.93225 29.7739 1.93225C26.6928 1.93225 22.6288 3.36667 20.7694 6.10269C19.3351 8.14807 16.4398 13.9654 15.457 15.9577L25.8428 9.2106C26.6131 8.57308 27.4099 8.17463 28.4193 7.96212C28.8443 7.85587 29.2958 7.80274 29.7739 7.80274C32.8817 7.80274 35.6176 10.2466 35.8832 13.2482C36.1223 14.8951 35.591 16.6218 34.4223 17.9765C33.5723 18.9593 32.4833 19.6234 31.3411 19.9422V17.7906L23.5053 22.8376L31.3145 27.9112V25.8924C35.5645 25.3611 39.1503 22.6516 40.8503 18.5609C42.7362 13.9654 41.7534 8.94497 38.2738 5.46517Z" fill="url(#paint1_linear_1149_2441)"/>
<defs>
<linearGradient id="paint0_linear_1149_2441" x1="13.1659" y1="0" x2="13.1659" y2="25.9648" gradientUnits="userSpaceOnUse">
<stop stop-color="#1D65DC"/>
<stop offset="1" stop-color="#0A4BB3"/>
</linearGradient>
<linearGradient id="paint1_linear_1149_2441" x1="28.6256" y1="1.93191" x2="28.6256" y2="27.8968" gradientUnits="userSpaceOnUse">
<stop stop-color="#1D65DC"/>
<stop offset="1" stop-color="#0A4BB3"/>
</linearGradient>
</defs>
</svg>
