<svg width="26" height="26" viewBox="0 0 26 26" fill="none" xmlns="http://www.w3.org/2000/svg">
<path d="M4.65182 10.7942C4.28874 10.7808 3.92862 10.7235 3.57932 10.6236C3.46445 10.5901 3.34282 10.5872 3.22649 10.6153C3.11017 10.6433 3.00319 10.7012 2.91616 10.7833C2.82912 10.8654 2.76506 10.9689 2.73031 11.0834C2.69557 11.1979 2.69135 11.3194 2.71807 11.4361C2.93194 12.2942 3.38037 13.0758 4.01318 13.6935C4.64599 14.3113 5.43821 14.7408 6.3012 14.9339C5.90463 15.0456 5.49445 15.1017 5.08245 15.1004C4.98679 15.1002 4.89268 15.1246 4.80921 15.1713C4.72574 15.2181 4.65572 15.2855 4.6059 15.3672C4.55609 15.4488 4.52816 15.542 4.52482 15.6376C4.52148 15.7332 4.54283 15.828 4.58682 15.9129C4.97441 16.6308 5.54413 17.2339 6.2387 17.6618C6.93328 18.0897 7.72824 18.3272 8.5437 18.3504H8.94995C9.16543 18.3504 9.3721 18.4361 9.52447 18.5884C9.67684 18.7408 9.76245 18.9475 9.76245 19.1629C9.76245 19.3784 9.67684 19.5851 9.52447 19.7375C9.3721 19.8898 9.16543 19.9754 8.94995 19.9754C8.333 19.9699 7.71805 19.9046 7.1137 19.7804C6.72325 19.6876 6.31435 19.7087 5.93557 19.8414C5.23458 20.0989 4.50465 20.2694 3.76213 20.3492C3.62554 20.3573 3.49703 20.4166 3.40217 20.5152C3.30732 20.6139 3.25308 20.7446 3.25026 20.8814C3.24983 20.9852 3.27954 21.0869 3.33578 21.1742C3.39203 21.2614 3.4724 21.3305 3.56713 21.3729C5.21172 22.099 6.98971 22.474 8.78745 22.4739C17.3674 22.4739 22.0596 15.1858 22.0596 8.86451C22.0586 8.67925 22.0981 8.49601 22.1752 8.32759C22.2524 8.15918 22.3655 8.00966 22.5065 7.88951C22.9968 7.47761 23.4445 7.0176 23.8431 6.51639C23.8769 6.47092 23.8951 6.41579 23.8952 6.35914C23.8953 6.30249 23.8771 6.24732 23.8434 6.20178C23.8097 6.15624 23.7623 6.12275 23.7081 6.10625C23.6539 6.08974 23.5958 6.09111 23.5424 6.11014C23.0556 6.27669 22.5554 6.40172 22.0474 6.48389C22.0303 6.4855 22.0131 6.48163 21.9983 6.47284C21.9836 6.46406 21.9719 6.45081 21.9652 6.435C21.9584 6.41919 21.9568 6.40164 21.9606 6.38487C21.9645 6.36811 21.9735 6.35299 21.9865 6.3417C22.6114 5.88986 23.1174 5.29323 23.4612 4.60295C23.488 4.55297 23.498 4.49569 23.4897 4.43959C23.4814 4.38349 23.4553 4.33155 23.4152 4.29145C23.3751 4.25135 23.3232 4.22523 23.267 4.21694C23.211 4.20866 23.1537 4.21865 23.1037 4.24545C22.6454 4.4762 22.1684 4.66781 21.6778 4.81826C21.4307 4.8907 21.1697 4.9023 20.9172 4.85207C20.6647 4.80185 20.428 4.69129 20.2274 4.52982C19.4184 3.88819 18.4163 3.53886 17.3837 3.53857C16.3438 3.54804 15.3366 3.9033 14.5209 4.54838C13.7051 5.19345 13.1273 6.09165 12.8784 7.10139C12.8596 7.1855 12.8604 7.27283 12.8808 7.35658C12.9012 7.44032 12.9406 7.51824 12.996 7.58426C13.0515 7.65029 13.1214 7.70265 13.2003 7.73727C13.2792 7.77189 13.3651 7.78784 13.4512 7.78389C14.0522 7.7595 14.6502 7.68475 15.2387 7.56045C15.4283 7.51629 15.6273 7.53959 15.8016 7.62634C15.9758 7.71309 16.1144 7.85787 16.1934 8.03576C16.2374 8.14112 16.2588 8.25457 16.256 8.36873C16.2533 8.48289 16.2265 8.59519 16.1774 8.6983C16.1284 8.80142 16.0581 8.89303 15.9713 8.96717C15.8844 9.04131 15.7829 9.0963 15.6734 9.12857C14.3827 9.44494 13.0423 9.50429 11.7287 9.30326C8.65891 8.87451 5.83978 7.37357 3.77026 5.06607C3.70739 4.99384 3.62657 4.93946 3.53596 4.90844C3.44536 4.87742 3.34818 4.87085 3.25422 4.88939C3.16027 4.90794 3.07287 4.95094 3.00084 5.01406C2.92882 5.07718 2.87472 5.15818 2.84401 5.24889C2.67126 5.75643 2.58341 6.289 2.58401 6.82514C2.58156 7.6047 2.76846 8.3732 3.12865 9.06457C3.48884 9.75594 4.01154 10.3495 4.65182 10.7942Z" fill="white"/>
</svg>
